# This file uses meters as units for non-parametric coordinates.

mtllib kitchen_hood.mtl
g default
v -16.277203 -0.986769 39.574940
v -16.277203 18.936099 39.574940
v 14.345600 3.385448 39.574940
v -16.277203 18.936099 -39.574940
v 14.345600 3.385448 -39.574940
v -16.277203 -0.986769 -39.574940
v -8.564272 18.799028 39.574940
v -8.564272 18.799028 -39.574940
v -8.564276 -0.986769 -39.574940
v -8.564276 -0.986769 39.574940
v -7.573530 -0.986769 -36.486401
v -7.573530 -0.986769 36.486401
v 10.859684 -0.986769 -36.486401
v 10.859684 -0.986769 36.486401
v -7.573530 0.197208 -36.486401
v -7.573530 0.197208 36.486401
v 10.859684 0.197208 -36.486401
v 10.859684 0.197208 36.486401
v -8.564272 18.799028 20.778656
v -16.277203 18.936099 20.778656
v -16.277203 -0.986769 20.778656
v -8.564276 -0.986769 20.778656
v -7.573530 -0.986769 19.221344
v -7.573530 0.197208 19.221344
v 10.859684 0.197208 19.221344
v 10.859684 -0.986769 19.221344
v 14.345600 3.385448 20.778656
v -8.564272 18.799028 -20.786396
v -16.277203 18.936099 -20.786396
v -16.277203 -0.986769 -20.786394
v -8.564276 -0.986769 -20.786394
v -7.573530 -0.986769 -19.213606
v -7.573530 0.197208 -19.213606
v 10.859685 0.197208 -19.213606
v 10.859685 -0.986769 -19.213606
v 14.345600 3.385448 -20.786394
v -8.257153 36.080409 20.778656
v -15.970085 36.217479 20.778656
v -8.257153 36.080409 -20.786394
v -15.970085 36.217479 -20.786394
v -11.871298 39.893722 20.778656
v -15.870869 41.800487 20.778656
v -11.871298 39.893722 -20.786394
v -15.870869 41.800487 -20.786394
v 15.990134 -0.986769 -38.957294
v 16.277203 -0.020016 -39.574940
v 15.798457 -0.986769 -20.205080
v 16.243282 0.039784 -20.786394
v 16.277203 -0.020016 39.574940
v 15.990134 -0.986769 38.957294
v 16.243790 0.038888 20.778656
v 15.796906 -0.986769 20.202192
v 11.881293 -1.450811 7.303473
v 13.349101 -1.450811 7.303473
v 11.881293 -1.136979 7.303473
v 13.349101 -1.136979 7.303473
v 11.881293 -1.136979 3.387382
v 13.349101 -1.136979 3.387382
v 11.881293 -1.800486 3.387382
v 13.349101 -1.800486 3.387382
v 13.349101 -1.450811 5.363995
v 11.881293 -1.450811 5.363995
v 11.881293 -1.136979 5.363995
v 13.349101 -1.136979 5.363995
v 11.681213 -1.226531 7.837285
v 13.549181 -1.226531 7.837285
v 11.681213 -0.827140 7.837285
v 13.549181 -0.827140 7.837285
v 11.681213 -0.827140 2.853570
v 13.549181 -0.827140 2.853570
v 11.681213 -1.226531 2.853570
v 13.549181 -1.226531 2.853570
v 11.681213 -1.226531 -2.653667
v 13.549181 -1.226531 -2.653667
v 11.681213 -0.827140 -2.653667
v 13.549181 -0.827140 -2.653667
v 11.681213 -0.827140 -7.637382
v 13.549181 -0.827140 -7.637382
v 11.681213 -1.226531 -7.637382
v 13.549181 -1.226531 -7.637382
vt 0.375000 0.000000
vt 0.375000 0.250000
vt 0.375000 0.500000
vt 0.375000 0.750000
vt 0.375000 1.000000
vt 0.125000 0.000000
vt 0.125000 0.250000
vt 0.433250 0.500000
vt 0.433250 0.750000
vt 0.433250 1.000000
vt 0.433250 1.000000
vt 0.433250 0.750000
vt 0.433250 1.000000
vt 0.433250 0.750000
vt 0.625000 0.750000
vt 0.625000 1.000000
vt 0.433250 0.311972
vt 0.313028 0.250000
vt 0.375000 0.311972
vt 0.313028 0.000000
vt 0.375000 0.938028
vt 0.433250 0.938028
vt 0.433250 0.938028
vt 0.433250 0.938028
vt 0.625000 0.938028
vt 0.625000 0.311972
vt 0.433250 0.438654
vt 0.186346 0.250000
vt 0.375000 0.438654
vt 0.186346 0.000000
vt 0.375000 0.811346
vt 0.433250 0.811346
vt 0.433250 0.811346
vt 0.433250 0.811346
vt 0.625000 0.811346
vt 0.625000 0.438654
vt 0.375000 0.311972
vt 0.433250 0.311972
vt 0.433250 0.438654
vt 0.375000 0.438654
vt 0.375000 0.311972
vt 0.433250 0.311972
vt 0.433250 0.438654
vt 0.375000 0.438654
vt 0.625000 0.500000
vt 0.433250 0.250000
vt 0.433250 0.000000
vt 0.622888 1.000000
vt 0.625000 1.000000
vt 0.625000 0.694722
vt 0.625000 0.810175
vt 0.625000 0.811346
vt 0.625000 0.938028
vt 0.624924 0.013636
vt 0.686972 0.031929
vt 0.625000 0.055278
vt 0.686972 0.058646
vt 0.625000 0.250000
vt 0.625000 0.938028
vt 0.625000 0.938028
vt 0.625000 0.811346
vt 0.686972 0.250000
vt 0.813654 0.058697
vt 0.622888 0.750000
vt 0.625000 0.811346
vt 0.625000 0.750000
vt 0.813654 0.250000
vt 0.875000 0.055278
vt 0.875000 0.250000
vt 0.375000 0.000000
vt 0.625000 0.000000
vt 0.625000 0.250000
vt 0.375000 0.250000
vt 0.375000 0.373815
vt 0.625000 0.373815
vt 0.625000 0.500000
vt 0.375000 0.500000
vt 0.625000 0.750000
vt 0.375000 0.750000
vt 0.625000 0.876185
vt 0.375000 0.876185
vt 0.748815 0.250000
vt 0.748815 0.000000
vt 0.875000 0.000000
vt 0.875000 0.250000
vt 0.125000 0.000000
vt 0.251185 0.000000
vt 0.251185 0.250000
vt 0.125000 0.250000
vt 0.625000 1.000000
vt 0.375000 1.000000
vt 0.375000 0.000000
vt 0.625000 0.000000
vt 0.625000 0.250000
vt 0.375000 0.250000
vt 0.625000 0.500000
vt 0.375000 0.500000
vt 0.625000 0.750000
vt 0.375000 0.750000
vt 0.625000 1.000000
vt 0.375000 1.000000
vt 0.875000 0.000000
vt 0.875000 0.250000
vt 0.125000 0.000000
vt 0.125000 0.250000
vt 0.375000 0.000000
vt 0.625000 0.000000
vt 0.625000 0.250000
vt 0.375000 0.250000
vt 0.625000 0.500000
vt 0.375000 0.500000
vt 0.625000 0.750000
vt 0.375000 0.750000
vt 0.625000 1.000000
vt 0.375000 1.000000
vt 0.875000 0.000000
vt 0.875000 0.250000
vt 0.125000 0.000000
vt 0.125000 0.250000
vn 0.000000 0.000000 1.000000
vn 0.000686 -0.017638 0.999844
vn 0.000563 -0.014464 0.999895
vn 0.000000 0.000000 1.000000
vn 0.017769 0.999842 0.000000
vn 0.452778 0.891623 0.000000
vn 0.521156 0.853461 0.000000
vn 0.017769 0.999842 0.000000
vn 0.000000 0.000000 -1.000000
vn 0.000563 -0.014464 -0.999895
vn 0.000686 -0.017638 -0.999844
vn 0.000000 0.000000 -1.000000
vn 0.000000 -1.000000 0.000000
vn 0.000000 -1.000000 0.000000
vn 0.000000 -1.000000 0.000000
vn 0.000000 -1.000000 0.000000
vn -1.000000 -0.000000 0.000000
vn -1.000000 0.000000 0.000000
vn -1.000000 0.000000 0.000000
vn -0.999978 0.006645 0.000000
vn 0.603510 0.797356 -0.000000
vn 0.603270 0.797537 -0.000000
vn 0.001059 -0.027219 -0.999629
vn 0.001059 -0.027219 -0.999629
vn 0.001059 -0.027219 -0.999629
vn 0.000000 -1.000000 0.000000
vn 0.000000 -1.000000 -0.000000
vn 0.000000 -1.000000 -0.000000
vn 0.000000 -1.000000 0.000000
vn 0.001059 -0.027219 0.999629
vn 0.001059 -0.027219 0.999629
vn 0.001059 -0.027219 0.999629
vn 0.000000 -1.000000 0.000000
vn 0.000000 -1.000000 -0.000000
vn 0.000000 -1.000000 -0.000000
vn 0.000000 -1.000000 0.000000
vn 0.000000 -1.000000 0.000000
vn 0.000000 -1.000000 0.000000
vn 0.000000 -1.000000 0.000000
vn 0.000000 -1.000000 0.000000
vn 1.000000 0.000000 0.000000
vn 1.000000 0.000000 -0.000000
vn 1.000000 0.000000 -0.000000
vn 1.000000 0.000000 0.000000
vn 0.000000 0.000000 1.000000
vn 0.000000 0.000000 1.000000
vn 0.000000 0.000000 1.000000
vn 0.000000 0.000000 1.000000
vn -1.000000 0.000000 -0.000000
vn -1.000000 0.000000 0.000000
vn -1.000000 0.000000 0.000000
vn -1.000000 0.000000 -0.000000
vn 0.000000 0.000000 -1.000000
vn 0.000000 0.000000 -1.000000
vn 0.000000 0.000000 -1.000000
vn 0.000000 0.000000 -1.000000
vn 0.430340 0.902667 0.000000
vn 0.430340 0.902667 0.000000
vn 0.430340 0.902667 0.000000
vn 0.430340 0.902667 0.000000
vn -1.000000 -0.000000 0.000000
vn -0.999978 0.006646 0.000000
vn 0.000000 -1.000000 0.000000
vn 0.000000 -1.000000 0.000000
vn 0.000000 -1.000000 0.000000
vn 0.000000 -1.000000 -0.000000
vn 1.000000 0.000000 0.000000
vn 1.000000 0.000000 0.000000
vn 0.000000 -1.000000 0.000000
vn 0.000000 -1.000000 0.000000
vn -1.000000 0.000000 0.000000
vn -1.000000 0.000000 0.000000
vn 0.603268 0.797539 0.000000
vn 0.521166 0.853455 0.000000
vn 0.017769 0.999842 0.000000
vn 0.452778 0.891623 0.000000
vn 0.017769 0.999842 0.000000
vn -1.000000 0.000000 0.000000
vn -1.000000 0.000000 0.000000
vn 0.000000 -1.000000 0.000000
vn 0.000000 -1.000000 0.000000
vn 0.000000 -1.000000 0.000000
vn 0.000000 -1.000000 0.000000
vn 1.000000 0.000000 0.000000
vn 1.000000 0.000000 0.000000
vn 0.000000 -1.000000 0.000000
vn 0.000000 -1.000000 0.000000
vn -1.000000 0.000000 0.000000
vn -1.000000 0.000000 0.000000
vn 0.603504 0.797360 0.000000
vn 0.000000 0.000000 1.000000
vn 0.000000 0.000000 1.000000
vn 0.000000 0.000000 1.000000
vn 0.000000 0.000000 1.000000
vn 0.999842 -0.017769 0.000000
vn 0.999842 -0.017769 0.000000
vn 0.987933 0.154879 0.000000
vn 0.987934 0.154879 0.000000
vn -0.000000 0.000000 -1.000000
vn -0.000000 0.000000 -1.000000
vn -0.000000 0.000000 -1.000000
vn -0.000000 0.000000 -1.000000
vn -0.999842 0.017769 0.000000
vn -0.999842 0.017769 0.000000
vn 0.000000 0.000000 1.000000
vn 0.000000 0.000000 1.000000
vn 0.725807 0.687898 0.000000
vn 0.725807 0.687898 0.000000
vn 0.000000 0.000000 -1.000000
vn 0.000000 0.000000 -1.000000
vn -0.999842 0.017768 0.000000
vn -0.999842 0.017768 0.000000
vn 0.000000 -1.000000 0.000000
vn 0.000000 -1.000000 0.000000
vn 0.000000 -1.000000 0.000000
vn 0.000000 -1.000000 0.000000
vn 0.939903 -0.341386 0.006192
vn 0.939903 -0.341386 0.006192
vn 0.927812 -0.373038 0.002786
vn 0.921689 -0.387928 0.001166
vn 0.927609 -0.373543 -0.002778
vn 0.921630 -0.388068 -0.001162
vn 0.939541 -0.342382 -0.006208
vn 0.939541 -0.342382 -0.006208
vn 0.869821 0.493368 -0.000000
vn 0.869821 0.493368 -0.000000
vn 0.000000 -1.000000 0.000000
vn 0.000000 -1.000000 0.000000
vn 0.000000 -1.000000 0.000000
vn 0.000000 -1.000000 0.000000
vn 0.869821 0.493368 0.000000
vn 0.869821 0.493368 0.000000
vn 0.000000 0.000000 1.000000
vn 0.000000 0.000000 1.000000
vn 0.000000 0.000000 1.000000
vn 0.000000 0.000000 1.000000
vn 0.000000 1.000000 0.000000
vn 0.000000 1.000000 0.000000
vn 0.000000 1.000000 0.000000
vn 0.000000 1.000000 0.000000
vn 0.000000 0.000000 -1.000000
vn 0.000000 0.000000 -1.000000
vn 0.000000 0.000000 -1.000000
vn 0.000000 0.000000 -1.000000
vn 0.000000 -0.984710 0.174202
vn 0.000000 -0.984710 0.174202
vn 0.000000 -0.996037 0.088938
vn 0.000000 -0.996037 0.088938
vn 1.000000 0.000000 0.000000
vn 1.000000 0.000000 0.000000
vn 1.000000 0.000000 0.000000
vn 1.000000 0.000000 0.000000
vn -1.000000 0.000000 0.000000
vn -1.000000 0.000000 0.000000
vn -1.000000 0.000000 0.000000
vn -1.000000 0.000000 0.000000
vn 0.000000 -1.000000 0.000000
vn 0.000000 -1.000000 0.000000
vn -1.000000 0.000000 0.000000
vn -1.000000 0.000000 0.000000
vn 0.000000 1.000000 0.000000
vn 0.000000 1.000000 0.000000
vn 1.000000 0.000000 0.000000
vn 1.000000 0.000000 0.000000
vn 0.000000 0.000000 1.000000
vn 0.000000 0.000000 1.000000
vn 0.000000 0.000000 1.000000
vn 0.000000 0.000000 1.000000
vn 0.000000 1.000000 0.000000
vn 0.000000 1.000000 0.000000
vn 0.000000 1.000000 0.000000
vn 0.000000 1.000000 0.000000
vn 0.000000 0.000000 -1.000000
vn 0.000000 0.000000 -1.000000
vn 0.000000 0.000000 -1.000000
vn 0.000000 0.000000 -1.000000
vn 0.000000 -1.000000 0.000000
vn 0.000000 -1.000000 0.000000
vn 0.000000 -1.000000 0.000000
vn 0.000000 -1.000000 0.000000
vn 1.000000 0.000000 0.000000
vn 1.000000 0.000000 0.000000
vn 1.000000 0.000000 0.000000
vn 1.000000 0.000000 0.000000
vn -1.000000 0.000000 0.000000
vn -1.000000 0.000000 0.000000
vn -1.000000 0.000000 0.000000
vn -1.000000 0.000000 0.000000
vn 0.000000 0.000000 1.000000
vn 0.000000 0.000000 1.000000
vn 0.000000 0.000000 1.000000
vn 0.000000 0.000000 1.000000
vn 0.000000 1.000000 0.000000
vn 0.000000 1.000000 0.000000
vn 0.000000 1.000000 0.000000
vn 0.000000 1.000000 0.000000
vn 0.000000 0.000000 -1.000000
vn 0.000000 0.000000 -1.000000
vn 0.000000 0.000000 -1.000000
vn 0.000000 0.000000 -1.000000
vn 0.000000 -1.000000 0.000000
vn 0.000000 -1.000000 0.000000
vn 0.000000 -1.000000 0.000000
vn 0.000000 -1.000000 0.000000
vn 1.000000 0.000000 0.000000
vn 1.000000 0.000000 0.000000
vn 1.000000 0.000000 0.000000
vn 1.000000 0.000000 0.000000
vn -1.000000 0.000000 0.000000
vn -1.000000 0.000000 0.000000
vn -1.000000 0.000000 0.000000
vn -1.000000 0.000000 0.000000
s 1
g pCube43
usemtl initialShadingGroup
f 1/1/1 10/47/2 7/46/3 2/2/4
s 2
f 2/2/5 7/46/6 19/17/7 20/19/8
s 3
f 4/3/9 8/8/10 9/9/11 6/4/12
s 4
f 21/21/13 22/22/14 10/10/15 1/5/16
s 5
f 21/20/17 1/1/18 2/2/19 20/18/20
s 2
f 7/46/6 3/58/21 27/26/22 19/17/7
s 3
f 9/9/11 8/8/10 5/45/23 46/50/24 45/64/25
s 6
f 16/13/26 24/24/27 25/25/28 18/16/29
s 1
f 7/46/3 10/47/2 50/54/30 49/56/31 3/58/32
s 7
f 10/10/33 22/22/34 23/23/35 12/11/36
s 8
f 9/9/37 45/64/38 13/66/39 11/12/40
s 9
f 12/11/41 23/23/42 24/24/43 16/13/44
s off
f 11/12/45 13/66/46 17/15/47 15/14/48
s 10
f 26/59/49 14/49/50 18/16/51 25/25/52
s off
f 14/49/53 12/11/54 16/13/55 18/16/56
f 42/41/57 41/42/58 43/43/59 44/44/60
s 5
f 30/30/61 21/20/17 20/18/20 29/28/62
s 4
f 30/31/63 31/32/64 22/22/14 21/21/13
s 7
f 23/23/35 22/22/34 31/32/65 32/33/66
s 9
f 24/24/43 23/23/42 32/33/67 33/34/68
s 6
f 25/25/28 24/24/27 33/34/69 34/35/70
s 10
f 35/61/71 26/59/49 25/25/52 34/35/72
s 2
f 19/17/7 27/26/22 36/36/73 28/27/74
f 29/29/75 28/27/74 8/8/76 4/3/77
s 5
f 6/6/78 30/30/61 29/28/62 4/7/79
s 4
f 6/4/80 9/9/81 31/32/64 30/31/63
s 7
f 32/33/66 31/32/65 9/9/82 11/12/83
s 9
f 33/34/68 32/33/67 11/12/84 15/14/85
s 6
f 34/35/70 33/34/69 15/14/86 17/15/87
s 10
f 13/66/88 35/61/71 34/35/72 17/15/89
s 2
f 28/27/74 36/36/73 5/45/90 8/8/76
s 11
f 20/19/91 19/17/92 37/38/93 38/37/94
s 12
f 19/17/95 28/27/96 39/39/97 37/38/98
s 13
f 28/27/99 29/29/100 40/40/101 39/39/102
s 5
f 29/29/62 20/19/20 38/37/103 40/40/104
s 11
f 38/37/94 37/38/93 41/42/105 42/41/106
s 12
f 37/38/98 39/39/97 43/43/107 41/42/108
s 13
f 39/39/102 40/40/101 44/44/109 43/43/110
s 5
f 40/40/104 38/37/103 42/41/111 44/44/112
s 8
f 50/48/113 10/10/114 12/11/115 14/49/116
s 15
f 45/64/117 46/50/118 48/51/119 47/65/120
f 47/65/120 48/52/119 51/53/121 52/60/122
f 49/56/123 50/54/124 52/55/122 51/57/121
s 2
f 49/56/125 51/57/126 27/62/22 3/58/21
s 8
f 52/60/127 50/48/113 14/49/116 26/59/128
f 47/65/129 52/60/127 26/59/128 35/61/130
s 2
f 27/62/22 51/57/126 48/63/131 36/67/73
s 8
f 45/64/38 47/65/129 35/61/130 13/66/39
s 2
f 36/67/73 48/63/131 46/68/132 5/69/90
s off
f 53/70/133 54/71/134 56/72/135 55/73/136
s 16
f 63/74/137 64/75/138 58/76/139 57/77/140
s off
f 57/77/141 58/76/142 60/78/143 59/79/144
s 17
f 59/79/145 60/78/146 61/80/147 62/81/148
s 18
f 64/82/149 61/83/150 60/84/151 58/85/152
s 19
f 59/86/153 62/87/154 63/88/155 57/89/156
s 17
f 62/81/148 61/80/147 54/90/157 53/91/158
s 19
f 63/88/155 62/87/154 53/70/159 55/73/160
s 16
f 55/73/161 56/72/162 64/75/138 63/74/137
s 18
f 54/71/163 61/83/150 64/82/149 56/72/164
s off
f 65/92/165 66/93/166 68/94/167 67/95/168
f 67/95/169 68/94/170 70/96/171 69/97/172
f 69/97/173 70/96/174 72/98/175 71/99/176
f 71/99/177 72/98/178 66/100/179 65/101/180
f 66/93/181 72/102/182 70/103/183 68/94/184
f 71/104/185 65/92/186 67/95/187 69/105/188
f 73/106/189 74/107/190 76/108/191 75/109/192
f 75/109/193 76/108/194 78/110/195 77/111/196
f 77/111/197 78/110/198 80/112/199 79/113/200
f 79/113/201 80/112/202 74/114/203 73/115/204
f 74/107/205 80/116/206 78/117/207 76/108/208
f 79/118/209 73/106/210 75/109/211 77/119/212
