# This file uses centimeters as units for non-parametric coordinates.

mtllib Pill_Bottle.mtl
g default
v 3.907547 6.390416 -1.310131
v 3.323951 6.390404 -2.492033
v 2.414994 6.390404 -3.429990
v 1.269636 6.390416 -4.032182
v -0.000005 6.390404 -4.239700
v -1.269641 6.390416 -4.032182
v -2.415004 6.390404 -3.429983
v -3.323958 6.390404 -2.492033
v -3.907547 6.390416 -1.310131
v -4.108646 6.390404 0.000004
v -3.907547 6.390416 1.310138
v -3.323958 6.390404 2.492031
v -2.415004 6.390404 3.429982
v -1.269641 6.390404 4.032200
v -0.000005 6.390404 4.239699
v 1.269636 6.390416 4.032189
v 2.414985 6.390404 3.429982
v 3.323951 6.390404 2.492031
v 3.907542 6.390416 1.310138
v 4.108634 6.390404 0.000004
v 3.907547 4.253915 -1.310140
v 4.108634 4.253915 0.000004
v 3.907542 4.253909 1.310138
v 3.323951 4.253909 2.492036
v 2.414985 4.253909 3.429985
v 1.269636 4.253915 4.032189
v -0.000005 4.253915 4.239699
v -1.269641 4.253915 4.032189
v -2.415004 4.253909 3.429985
v -3.323958 4.253909 2.492036
v -3.907547 4.253909 1.310138
v -4.108646 4.253915 0.000004
v -3.907547 4.253915 -1.310140
v -3.323958 4.253915 -2.492029
v -2.415004 4.253915 -3.429983
v -1.269641 4.253909 -4.032190
v -0.000005 4.253909 -4.239683
v 1.269636 4.253909 -4.032190
v 2.414994 4.253915 -3.429983
v 3.323951 4.253915 -2.492029
v 3.323951 4.253915 -2.492029
v 3.907547 4.253915 -1.310140
v 2.414994 4.253915 -3.429983
v 1.269636 4.253909 -4.032190
v -0.000005 4.253909 -4.239683
v -1.269641 4.253909 -4.032190
v -2.415004 4.253915 -3.429983
v -3.323958 4.253915 -2.492029
v -3.907547 4.253915 -1.310140
v -4.108646 4.253915 0.000004
v -3.907547 4.253909 1.310138
v -3.323958 4.253909 2.492036
v -2.415004 4.253909 3.429985
v -1.269641 4.253915 4.032189
v -0.000005 4.253915 4.239699
v 1.269636 4.253915 4.032189
v 2.414985 4.253909 3.429985
v 3.323951 4.253909 2.492036
v 3.907542 4.253909 1.310138
v 4.108634 4.253915 0.000004
v 4.427323 -8.050496 -1.484407
v 3.766093 -8.050496 -2.823515
v 3.031216 4.253915 -2.272561
v 3.563414 4.253915 -1.194758
v 2.736235 -8.050496 -3.886239
v 2.202306 4.253915 -3.127912
v 1.438518 -8.050496 -4.568547
v 1.157818 4.253909 -3.677086
v -0.000005 -8.050496 -4.803650
v -0.000005 4.253909 -3.866305
v -1.438527 -8.050496 -4.568547
v -1.157823 4.253909 -3.677086
v -2.736247 -8.050496 -3.886239
v -2.202325 4.253915 -3.127912
v -3.766112 -8.050496 -2.823515
v -3.031228 4.253915 -2.272561
v -4.427326 -8.050496 -1.484407
v -3.563426 4.253915 -1.194758
v -4.655166 -8.050496 0.000000
v -3.746808 4.253915 0.000004
v -4.427326 -8.050496 1.484412
v -3.563426 4.253909 1.194758
v -3.766112 -8.050496 2.823521
v -3.031228 4.253909 2.272569
v -2.736247 -8.050496 3.886244
v -2.202325 4.253909 3.127916
v -1.438527 -8.050496 4.568558
v -1.157823 4.253915 3.677084
v -0.000005 -8.050496 4.803662
v -0.000005 4.253915 3.866320
v 1.438518 -8.050496 4.568558
v 1.157818 4.253915 3.677084
v 2.736235 -8.050496 3.886244
v 2.202306 4.253909 3.127916
v 3.766093 -8.050496 2.823521
v 3.031216 4.253909 2.272569
v 4.427314 -8.050496 1.484412
v 3.563414 4.253909 1.194758
v 4.655156 -8.050496 0.000000
v 3.746791 4.253915 0.000004
v 4.427323 -8.050496 -1.484407
v 3.766093 -8.050496 -2.823515
v 2.736235 -8.050496 -3.886239
v 1.438518 -8.050496 -4.568547
v -0.000005 -8.050496 -4.803650
v -1.438527 -8.050496 -4.568547
v -2.736247 -8.050496 -3.886239
v -3.766112 -8.050496 -2.823515
v -4.427326 -8.050496 -1.484407
v -4.655173 -8.050496 0.000000
v -4.427326 -8.050496 1.484412
v -3.766112 -8.050496 2.823521
v -2.736247 -8.050496 3.886244
v -1.438527 -8.050496 4.568558
v -0.000005 -8.050496 4.803662
v 1.438518 -8.050496 4.568558
v 2.736235 -8.050496 3.886244
v 3.766093 -8.050496 2.823521
v 4.427314 -8.050496 1.484412
v 4.655156 -8.050496 0.000000
v 3.766093 2.621842 -2.823515
v 4.427323 2.621849 -1.484411
v 4.655156 2.621842 0.000005
v 4.427314 2.621842 1.484412
v 3.766093 2.621842 2.823524
v 2.736235 2.621842 3.886242
v 1.438518 2.621849 4.568548
v -0.000005 2.621849 4.803662
v -1.438527 2.621849 4.568548
v -2.736247 2.621842 3.886242
v -3.766112 2.621842 2.823524
v -4.427326 2.621842 1.484412
v -4.655173 2.621842 0.000005
v -4.427326 2.621849 -1.484411
v -3.766112 2.621849 -2.823515
v -2.736247 2.621842 -3.886234
v -1.438527 2.621842 -4.568547
v -0.000005 2.621842 -4.803642
v 1.438518 2.621842 -4.568547
v 2.736235 2.621842 -3.886234
v 3.558927 3.296529 -2.668194
v 4.183784 3.296529 -1.402754
v 4.399066 3.296529 0.000005
v 4.183774 3.296529 1.402757
v 3.558927 3.296529 2.668203
v 2.585711 3.296529 3.672459
v 1.359382 3.296529 4.317235
v -0.000005 3.296529 4.539414
v -1.359391 3.296529 4.317235
v -2.585726 3.296529 3.672459
v -3.558934 3.296529 2.668203
v -4.183781 3.296529 1.402757
v -4.399090 3.296529 0.000005
v -4.183781 3.296529 -1.402754
v -3.558934 3.296529 -2.668194
v -2.585726 3.296529 -3.672454
v -1.359391 3.296529 -4.317232
v -0.000005 3.296529 -4.539393
v 1.359382 3.296529 -4.317232
v 2.585716 3.296529 -3.672454
v 3.963852 -8.050496 -1.329013
v 3.371849 -8.050496 -2.527939
v 2.449794 -8.050496 -3.479415
v 1.287928 -8.050496 -4.090296
v -0.000005 -8.050496 -4.300789
v -1.287942 -8.050496 -4.090296
v -2.449813 -8.050496 -3.479415
v -3.371863 -8.050496 -2.527939
v -3.963864 -8.050496 -1.329013
v -4.167857 -8.050496 0.000001
v -3.963864 -8.050496 1.329019
v -3.371863 -8.050496 2.527946
v -2.449813 -8.050496 3.479422
v -1.287942 -8.050496 4.090306
v -0.000005 -8.050496 4.300800
v 1.287928 -8.050496 4.090306
v 2.449794 -8.050496 3.479422
v 3.371849 -8.050496 2.527946
v 3.963852 -8.050496 1.329019
v 4.167838 -8.050496 0.000001
v 3.766093 -6.695699 -2.823515
v 4.427323 -6.695705 -1.484407
v 4.655156 -6.695699 0.000001
v 4.427314 -6.695705 1.484412
v 3.766093 -6.695705 2.823521
v 2.736235 -6.695699 3.886244
v 1.438518 -6.695705 4.568555
v -0.000005 -6.695705 4.803662
v -1.438527 -6.695705 4.568555
v -2.736247 -6.695699 3.886244
v -3.766112 -6.695705 2.823521
v -4.427326 -6.695705 1.484412
v -4.655166 -6.695699 0.000001
v -4.427326 -6.695705 -1.484407
v -3.766112 -6.695699 -2.823515
v -2.736247 -6.695699 -3.886239
v -1.438527 -6.695699 -4.568547
v -0.000005 -6.695705 -4.803650
v 1.438518 -6.695699 -4.568547
v 2.736235 -6.695699 -3.886239
v 3.258491 -7.824032 -1.092518
v 2.771831 -7.824026 -2.078098
v 1.958680 -7.824032 -0.656713
v -0.000010 -7.824026 0.000002
v 2.013855 -7.824026 -2.860259
v 1.058745 -7.824026 -3.362437
v -0.000010 -7.824032 -3.535472
v -1.058755 -7.824026 -3.362437
v -2.013874 -7.824026 -2.860259
v -2.771850 -7.824026 -2.078098
v -3.258502 -7.824032 -1.092518
v -3.426201 -7.824026 0.000002
v -3.258502 -7.824032 1.092524
v -2.771850 -7.824032 2.078105
v -2.013874 -7.824026 2.860268
v -1.058755 -7.824032 3.362448
v -0.000010 -7.824032 3.535483
v 1.058745 -7.824032 3.362448
v 2.013855 -7.824026 2.860268
v 2.771831 -7.824032 2.078105
v 3.258491 -7.824032 1.092524
v 3.426175 -7.824026 0.000002
v 3.283668 6.390416 -1.100957
v 2.793250 6.390404 -2.094156
v 2.029419 6.390404 -2.882360
v 1.066923 6.390416 -3.388406
v -0.000005 6.390404 -3.562792
v -1.066937 6.390416 -3.388406
v -2.029428 6.390404 -2.882355
v -2.793262 6.390404 -2.094156
v -3.283672 6.390416 -1.100957
v -3.452666 6.390404 0.000004
v -3.283672 6.390416 1.100962
v -2.793262 6.390404 2.094155
v -2.029428 6.390404 2.882352
v -1.066937 6.390404 3.388422
v -0.000005 6.390404 3.562792
v 1.066923 6.390416 3.388412
v 2.029405 6.390404 2.882352
v 2.793250 6.390404 2.094155
v 3.283668 6.390416 1.100962
v 3.452644 6.390404 0.000004
v 3.283668 6.958153 -1.100957
v 2.793250 6.958147 -2.094156
v -0.000005 6.958147 0.000004
v 2.029419 6.958147 -2.882360
v 1.066923 6.958153 -3.388406
v -0.000005 6.958147 -3.562792
v -1.066937 6.958153 -3.388406
v -2.029428 6.958147 -2.882355
v -2.793262 6.958147 -2.094156
v -3.283672 6.958153 -1.100957
v -3.452666 6.958147 0.000004
v -3.283672 6.958153 1.100962
v -2.793262 6.958147 2.094155
v -2.029428 6.958147 2.882352
v -1.066937 6.958147 3.388422
v -0.000005 6.958147 3.562792
v 1.066923 6.958153 3.388412
v 2.029405 6.958147 2.882352
v 2.793250 6.958147 2.094155
v 3.283668 6.958153 1.100962
v 3.452644 6.958147 0.000004
v 3.766093 0.758334 -2.823515
v 4.427323 0.758340 -1.484411
v 4.655156 0.758334 0.000004
v 4.427314 0.758334 1.484412
v 3.766093 0.758334 2.823524
v 2.736235 0.758334 3.886242
v 1.438518 0.758340 4.568551
v -0.000005 0.758340 4.803662
v -1.438527 0.758340 4.568551
v -2.736247 0.758334 3.886242
v -3.766112 0.758334 2.823524
v -4.427326 0.758334 1.484412
v -4.655170 0.758334 0.000004
v -4.427326 0.758340 -1.484411
v -3.766112 0.758340 -2.823515
v -2.736247 0.758334 -3.886235
v -1.438527 0.758334 -4.568547
v -0.000005 0.758334 -4.803644
v 1.438518 0.758334 -4.568547
v 2.736235 0.758334 -3.886235
v 3.766093 -4.459489 -2.823515
v 4.427323 -4.459495 -1.484408
v 4.655156 -4.459489 0.000002
v 4.427314 -4.459495 1.484412
v 3.766093 -4.459495 2.823521
v 2.736235 -4.459489 3.886244
v 1.438518 -4.459495 4.568554
v -0.000005 -4.459495 4.803662
v -1.438527 -4.459495 4.568554
v -2.736247 -4.459489 3.886244
v -3.766112 -4.459495 2.823521
v -4.427326 -4.459495 1.484412
v -4.655170 -4.459489 0.000002
v -4.427326 -4.459495 -1.484408
v -3.766112 -4.459489 -2.823515
v -2.736247 -4.459489 -3.886237
v -1.438527 -4.459489 -4.568547
v -0.000005 -4.459495 -4.803648
v 1.438518 -4.459489 -4.568547
v 2.736235 -4.459489 -3.886237
v 3.713403 2.846428 -2.784009
v 4.365382 2.846440 -1.463641
v 4.590020 2.846428 0.000005
v 4.365368 2.846428 1.463644
v 3.713403 2.846428 2.784019
v 2.697949 2.846428 3.831868
v 1.418390 2.846440 4.504627
v -0.000005 2.846440 4.736451
v -1.418400 2.846440 4.504627
v -2.697964 2.846428 3.831868
v -3.713417 2.846428 2.784019
v -4.365380 2.846428 1.463644
v -4.590037 2.846428 0.000005
v -4.365380 2.846440 -1.463641
v -3.713417 2.846440 -2.784009
v -2.697964 2.846428 -3.831859
v -1.418400 2.846428 -4.504625
v -0.000005 2.846428 -4.736431
v 1.418390 2.846428 -4.504625
v 2.697954 2.846428 -3.831859
v 3.883013 -4.459489 -2.911171
v 4.564771 -4.459495 -1.530492
v 3.883013 0.758334 -2.911171
v 4.564771 0.758340 -1.530495
v 4.799677 -4.459489 0.000002
v 4.799677 0.758334 0.000004
v 4.564761 -4.459495 1.530495
v 4.564761 0.758334 1.530495
v 3.883013 -4.459495 2.911177
v 3.883013 0.758334 2.911181
v 2.821182 -4.459489 4.006893
v 2.821182 0.758334 4.006890
v 1.483177 -4.459495 4.710386
v 1.483177 0.758340 4.710382
v -0.000005 -4.459495 4.952792
v -0.000005 0.758340 4.952792
v -1.483186 -4.459495 4.710386
v -1.483186 0.758340 4.710382
v -2.821194 -4.459489 4.006893
v -2.821194 0.758334 4.006890
v -3.883032 -4.459495 2.911177
v -3.883032 0.758334 2.911181
v -4.564773 -4.459495 1.530495
v -4.564773 0.758334 1.530495
v -4.799691 -4.459489 0.000002
v -4.799691 0.758334 0.000004
v -4.564773 -4.459495 -1.530492
v -4.564773 0.758340 -1.530495
v -3.883032 -4.459489 -2.911171
v -3.883032 0.758340 -2.911171
v -2.821194 -4.459489 -4.006886
v -2.821194 0.758334 -4.006884
v -1.483186 -4.459489 -4.710379
v -1.483186 0.758334 -4.710379
v -0.000005 -4.459495 -4.952778
v -0.000005 0.758334 -4.952775
v 1.483177 -4.459489 -4.710379
v 1.483177 0.758334 -4.710379
v 2.821182 -4.459489 -4.006886
v 2.821182 0.758334 -4.006884
vt 0.648603 0.107966
vt 0.626409 0.064408
vt 0.591842 0.029841
vt 0.548284 0.007647
vt 0.500000 -0.000000
vt 0.451716 0.007647
vt 0.408159 0.029841
vt 0.373591 0.064409
vt 0.351397 0.107966
vt 0.343750 0.156250
vt 0.351397 0.204534
vt 0.373591 0.248091
vt 0.408159 0.282659
vt 0.451716 0.304853
vt 0.500000 0.312500
vt 0.548284 0.304853
vt 0.591841 0.282659
vt 0.626409 0.248091
vt 0.648603 0.204534
vt 0.656250 0.156250
vt 0.375000 0.312500
vt 0.387500 0.312500
vt 0.400000 0.312500
vt 0.412500 0.312500
vt 0.425000 0.312500
vt 0.437500 0.312500
vt 0.450000 0.312500
vt 0.462500 0.312500
vt 0.475000 0.312500
vt 0.487500 0.312500
vt 0.500000 0.312500
vt 0.512500 0.312500
vt 0.525000 0.312500
vt 0.537500 0.312500
vt 0.550000 0.312500
vt 0.562500 0.312500
vt 0.575000 0.312500
vt 0.587500 0.312500
vt 0.600000 0.312500
vt 0.612500 0.312500
vt 0.625000 0.312500
vt 0.375000 0.687500
vt 0.387500 0.687500
vt 0.400000 0.687500
vt 0.412500 0.687500
vt 0.425000 0.687500
vt 0.437500 0.687500
vt 0.450000 0.687500
vt 0.462500 0.687500
vt 0.475000 0.687500
vt 0.487500 0.687500
vt 0.500000 0.687500
vt 0.512500 0.687500
vt 0.525000 0.687500
vt 0.537500 0.687500
vt 0.550000 0.687500
vt 0.562500 0.687500
vt 0.575000 0.687500
vt 0.587500 0.687500
vt 0.600000 0.687500
vt 0.612500 0.687500
vt 0.625000 0.687500
vt 0.648603 0.795466
vt 0.626409 0.751908
vt 0.591842 0.717341
vt 0.548284 0.695147
vt 0.500000 0.687500
vt 0.451716 0.695147
vt 0.408159 0.717341
vt 0.373591 0.751909
vt 0.351397 0.795466
vt 0.343750 0.843750
vt 0.351397 0.892034
vt 0.373591 0.935591
vt 0.408159 0.970159
vt 0.451716 0.992353
vt 0.500000 1.000000
vt 0.548284 0.992353
vt 0.591841 0.970159
vt 0.626409 0.935591
vt 0.648603 0.892034
vt 0.656250 0.843750
vt 0.500000 0.156250
vt 0.500000 0.843750
vt 0.625000 0.612500
vt 0.375000 0.612500
vt 0.612500 0.612500
vt 0.600000 0.612500
vt 0.587500 0.612500
vt 0.575000 0.612500
vt 0.562500 0.612500
vt 0.550000 0.612500
vt 0.537500 0.612500
vt 0.525000 0.612500
vt 0.512500 0.612500
vt 0.500000 0.612500
vt 0.487500 0.612500
vt 0.475000 0.612500
vt 0.462500 0.612500
vt 0.450000 0.612500
vt 0.437500 0.612500
vt 0.425000 0.612500
vt 0.412500 0.612500
vt 0.400000 0.612500
vt 0.387500 0.612500
vt 0.375000 0.312500
vt 0.387500 0.312500
vt 0.387500 0.612500
vt 0.375000 0.612500
vt 0.400000 0.312500
vt 0.400000 0.612500
vt 0.412500 0.312500
vt 0.412500 0.612500
vt 0.425000 0.312500
vt 0.425000 0.612500
vt 0.437500 0.312500
vt 0.437500 0.612500
vt 0.450000 0.312500
vt 0.450000 0.612500
vt 0.462500 0.312500
vt 0.462500 0.612500
vt 0.475000 0.312500
vt 0.475000 0.612500
vt 0.487500 0.312500
vt 0.487500 0.612500
vt 0.500000 0.312500
vt 0.500000 0.612500
vt 0.512500 0.312500
vt 0.512500 0.612500
vt 0.525000 0.312500
vt 0.525000 0.612500
vt 0.537500 0.312500
vt 0.537500 0.612500
vt 0.550000 0.312500
vt 0.550000 0.612500
vt 0.562500 0.312500
vt 0.562500 0.612500
vt 0.575000 0.312500
vt 0.575000 0.612500
vt 0.587500 0.312500
vt 0.587500 0.612500
vt 0.600000 0.312500
vt 0.600000 0.612500
vt 0.612500 0.312500
vt 0.612500 0.612500
vt 0.625000 0.312500
vt 0.625000 0.612500
vt 0.387500 0.612500
vt 0.375000 0.612500
vt 0.400000 0.612500
vt 0.412500 0.612500
vt 0.425000 0.612500
vt 0.437500 0.612500
vt 0.450000 0.612500
vt 0.462500 0.612500
vt 0.475000 0.612500
vt 0.487500 0.612500
vt 0.500000 0.612500
vt 0.512500 0.612500
vt 0.525000 0.612500
vt 0.537500 0.612500
vt 0.550000 0.612500
vt 0.562500 0.612500
vt 0.575000 0.612500
vt 0.587500 0.612500
vt 0.600000 0.612500
vt 0.612500 0.612500
vt 0.625000 0.612500
vt 0.387500 0.582500
vt 0.625000 0.582500
vt 0.375000 0.582500
vt 0.612500 0.582500
vt 0.600000 0.582500
vt 0.587500 0.582500
vt 0.575000 0.582500
vt 0.562500 0.582500
vt 0.550000 0.582500
vt 0.537500 0.582500
vt 0.525000 0.582500
vt 0.512500 0.582500
vt 0.500000 0.582500
vt 0.487500 0.582500
vt 0.475000 0.582500
vt 0.462500 0.582500
vt 0.450000 0.582500
vt 0.437500 0.582500
vt 0.425000 0.582500
vt 0.412500 0.582500
vt 0.400000 0.582500
vt 0.387500 0.597500
vt 0.625000 0.597500
vt 0.375000 0.597500
vt 0.612500 0.597500
vt 0.600000 0.597500
vt 0.587500 0.597500
vt 0.575000 0.597500
vt 0.562500 0.597500
vt 0.550000 0.597500
vt 0.537500 0.597500
vt 0.525000 0.597500
vt 0.512500 0.597500
vt 0.500000 0.597500
vt 0.487500 0.597500
vt 0.475000 0.597500
vt 0.462500 0.597500
vt 0.450000 0.597500
vt 0.437500 0.597500
vt 0.425000 0.597500
vt 0.412500 0.597500
vt 0.400000 0.597500
vt 0.589325 0.127226
vt 0.626409 0.064408
vt 0.648603 0.107966
vt 0.591842 0.029841
vt 0.548284 0.007647
vt 0.500000 -0.000000
vt 0.451716 0.007647
vt 0.408159 0.029841
vt 0.373591 0.064409
vt 0.351397 0.107966
vt 0.343750 0.156250
vt 0.351397 0.204534
vt 0.373591 0.248091
vt 0.408159 0.282659
vt 0.451716 0.304853
vt 0.500000 0.312500
vt 0.548284 0.304853
vt 0.591841 0.282659
vt 0.626409 0.248091
vt 0.648603 0.204534
vt 0.656250 0.156250
vt 0.387500 0.339500
vt 0.625000 0.339500
vt 0.375000 0.339500
vt 0.612500 0.339500
vt 0.600000 0.339500
vt 0.587500 0.339500
vt 0.575000 0.339500
vt 0.562500 0.339500
vt 0.550000 0.339500
vt 0.537500 0.339500
vt 0.525000 0.339500
vt 0.512500 0.339500
vt 0.500000 0.339500
vt 0.487500 0.339500
vt 0.475000 0.339500
vt 0.462500 0.339500
vt 0.450000 0.339500
vt 0.437500 0.339500
vt 0.425000 0.339500
vt 0.412500 0.339500
vt 0.400000 0.339500
vt 0.626409 0.064408
vt 0.648603 0.107966
vt 0.591842 0.029841
vt 0.548284 0.007647
vt 0.500000 -0.000000
vt 0.451716 0.007647
vt 0.408159 0.029841
vt 0.373591 0.064409
vt 0.351397 0.107966
vt 0.343750 0.156250
vt 0.351397 0.204534
vt 0.373591 0.248091
vt 0.408159 0.282659
vt 0.451716 0.304853
vt 0.500000 0.312500
vt 0.548284 0.304853
vt 0.591841 0.282659
vt 0.626409 0.248091
vt 0.648603 0.204534
vt 0.656250 0.156250
vt 0.648603 0.892034
vt 0.626409 0.935591
vt 0.591841 0.970159
vt 0.548284 0.992353
vt 0.500000 1.000000
vt 0.451716 0.992353
vt 0.408159 0.970159
vt 0.373591 0.935591
vt 0.351397 0.892034
vt 0.343750 0.843750
vt 0.351397 0.795466
vt 0.373591 0.751909
vt 0.408159 0.717341
vt 0.451716 0.695147
vt 0.500000 0.687500
vt 0.548284 0.695147
vt 0.591842 0.717341
vt 0.626409 0.751908
vt 0.648603 0.795466
vt 0.656250 0.843750
vt 0.648603 0.892034
vt 0.626409 0.935591
vt 0.591841 0.970159
vt 0.548284 0.992353
vt 0.500000 1.000000
vt 0.451716 0.992353
vt 0.408159 0.970159
vt 0.373591 0.935591
vt 0.351397 0.892034
vt 0.343750 0.843750
vt 0.351397 0.795466
vt 0.373591 0.751909
vt 0.408159 0.717341
vt 0.451716 0.695147
vt 0.500000 0.687500
vt 0.548284 0.695147
vt 0.591842 0.717341
vt 0.626409 0.751908
vt 0.648603 0.795466
vt 0.656250 0.843750
vt 0.387500 0.533900
vt 0.625000 0.533900
vt 0.375000 0.533900
vt 0.612500 0.533900
vt 0.600000 0.533900
vt 0.587500 0.533900
vt 0.575000 0.533900
vt 0.562500 0.533900
vt 0.550000 0.533900
vt 0.537500 0.533900
vt 0.525000 0.533900
vt 0.512500 0.533900
vt 0.500000 0.533900
vt 0.487500 0.533900
vt 0.475000 0.533900
vt 0.462500 0.533900
vt 0.450000 0.533900
vt 0.437500 0.533900
vt 0.425000 0.533900
vt 0.412500 0.533900
vt 0.400000 0.533900
vt 0.387500 0.397820
vt 0.625000 0.397820
vt 0.375000 0.397820
vt 0.612500 0.397820
vt 0.600000 0.397820
vt 0.587500 0.397820
vt 0.575000 0.397820
vt 0.562500 0.397820
vt 0.550000 0.397820
vt 0.537500 0.397820
vt 0.525000 0.397820
vt 0.512500 0.397820
vt 0.500000 0.397820
vt 0.487500 0.397820
vt 0.475000 0.397820
vt 0.462500 0.397820
vt 0.450000 0.397820
vt 0.437500 0.397820
vt 0.425000 0.397820
vt 0.412500 0.397820
vt 0.400000 0.397820
vt 0.387500 0.585500
vt 0.625000 0.585500
vt 0.375000 0.585500
vt 0.612500 0.585500
vt 0.600000 0.585500
vt 0.587500 0.585500
vt 0.575000 0.585500
vt 0.562500 0.585500
vt 0.550000 0.585500
vt 0.537500 0.585500
vt 0.525000 0.585500
vt 0.512500 0.585500
vt 0.500000 0.585500
vt 0.487500 0.585500
vt 0.475000 0.585500
vt 0.462500 0.585500
vt 0.450000 0.585500
vt 0.437500 0.585500
vt 0.425000 0.585500
vt 0.412500 0.585500
vt 0.400000 0.585500
vt 0.375000 0.397820
vt 0.387500 0.397820
vt 0.387500 0.533900
vt 0.375000 0.533900
vt 0.612500 0.397820
vt 0.625000 0.397820
vt 0.625000 0.533900
vt 0.612500 0.533900
vt 0.600000 0.397820
vt 0.600000 0.533900
vt 0.587500 0.397820
vt 0.587500 0.533900
vt 0.575000 0.397820
vt 0.575000 0.533900
vt 0.562500 0.397820
vt 0.562500 0.533900
vt 0.550000 0.397820
vt 0.550000 0.533900
vt 0.537500 0.397820
vt 0.537500 0.533900
vt 0.525000 0.397820
vt 0.525000 0.533900
vt 0.512500 0.397820
vt 0.512500 0.533900
vt 0.500000 0.397820
vt 0.500000 0.533900
vt 0.487500 0.397820
vt 0.487500 0.533900
vt 0.475000 0.397820
vt 0.475000 0.533900
vt 0.462500 0.397820
vt 0.462500 0.533900
vt 0.450000 0.397820
vt 0.450000 0.533900
vt 0.437500 0.397820
vt 0.437500 0.533900
vt 0.425000 0.397820
vt 0.425000 0.533900
vt 0.412500 0.397820
vt 0.412500 0.533900
vt 0.400000 0.397820
vt 0.400000 0.533900
vn 0.953832 0.000000 -0.300341
vn 0.817660 0.000000 -0.575701
vn 0.817660 0.000000 -0.575701
vn 0.953832 -0.000000 -0.300341
vn 0.599857 0.000000 -0.800107
vn 0.599857 0.000000 -0.800107
vn 0.317890 0.000000 -0.948128
vn 0.317890 0.000000 -0.948128
vn 0.000000 0.000000 -1.000000
vn 0.000000 0.000000 -1.000000
vn -0.317890 0.000000 -0.948128
vn -0.317890 0.000000 -0.948128
vn -0.599856 0.000000 -0.800108
vn -0.599856 0.000000 -0.800108
vn -0.817662 0.000000 -0.575699
vn -0.817662 0.000000 -0.575699
vn -0.953833 0.000000 -0.300338
vn -0.953833 -0.000000 -0.300338
vn -1.000000 0.000000 -0.000000
vn -1.000000 -0.000001 0.000000
vn -0.953833 0.000000 0.300337
vn -0.953833 -0.000000 0.300338
vn -0.817662 0.000000 0.575699
vn -0.817662 0.000000 0.575699
vn -0.599856 0.000000 0.800108
vn -0.599856 0.000000 0.800108
vn -0.317892 0.000001 0.948127
vn -0.317892 0.000000 0.948127
vn 0.000000 0.000001 1.000000
vn 0.000000 0.000001 1.000000
vn 0.317892 0.000001 0.948127
vn 0.317892 0.000000 0.948127
vn 0.599858 0.000000 0.800107
vn 0.599858 0.000000 0.800107
vn 0.817662 0.000000 0.575699
vn 0.817662 0.000000 0.575698
vn 0.953832 0.000000 0.300340
vn 0.953832 0.000000 0.300340
vn 1.000000 0.000000 0.000003
vn 1.000000 -0.000000 0.000003
vn -0.000002 -1.000000 -0.000003
vn -0.000002 -1.000000 0.000000
vn -0.000002 -1.000000 0.000000
vn -0.000000 -1.000000 -0.000000
vn 0.000000 -1.000000 0.000000
vn 0.000003 -1.000000 0.000001
vn 0.000000 -1.000000 0.000002
vn -0.000003 -1.000000 0.000001
vn 0.000000 -1.000000 0.000000
vn 0.000002 -1.000000 -0.000002
vn 0.000002 -1.000000 0.000001
vn 0.000000 -1.000000 -0.000000
vn 0.000001 -1.000000 -0.000003
vn 0.000003 -1.000000 0.000001
vn -0.000000 -1.000000 -0.000000
vn -0.000002 -1.000000 -0.000003
vn -0.000000 -1.000000 -0.000002
vn 0.000002 -1.000000 -0.000003
vn 0.000000 -1.000000 0.000000
vn -0.000003 -1.000000 0.000002
vn -0.000001 -1.000000 -0.000003
vn 0.000000 -1.000000 0.000001
vn -0.000002 1.000000 -0.000000
vn -0.000002 1.000000 -0.000003
vn -0.000000 1.000000 0.000000
vn 0.000002 1.000000 0.000002
vn -0.000001 1.000000 0.000002
vn 0.000000 1.000000 0.000000
vn 0.000001 1.000000 0.000002
vn -0.000002 1.000000 0.000002
vn 0.000002 1.000000 -0.000002
vn 0.000002 1.000000 0.000001
vn 0.000000 1.000000 0.000000
vn 0.000002 1.000000 -0.000001
vn 0.000002 1.000000 0.000002
vn 0.000000 1.000000 0.000000
vn 0.000000 1.000000 0.000000
vn -0.000003 1.000000 0.000000
vn -0.000001 1.000000 -0.000002
vn 0.000002 1.000000 -0.000002
vn -0.000002 1.000000 0.000002
vn -0.000002 1.000000 0.000000
vn 0.000000 1.000000 0.000000
vn 1.000000 0.000000 0.000002
vn 0.953832 0.000000 -0.300340
vn 0.953833 0.000000 -0.300339
vn 1.000000 0.000000 0.000002
vn 0.953832 0.000000 0.300340
vn 0.953832 0.000000 0.300340
vn 0.817659 0.000001 0.575703
vn 0.817659 0.000001 0.575703
vn 0.599855 0.000001 0.800108
vn 0.599855 0.000001 0.800109
vn 0.317895 0.000000 0.948126
vn 0.317895 0.000000 0.948126
vn 0.000002 -0.000001 1.000000
vn 0.000003 -0.000001 1.000000
vn -0.317894 -0.000002 0.948126
vn -0.317893 -0.000002 0.948126
vn -0.599856 -0.000000 0.800108
vn -0.599857 -0.000000 0.800107
vn -0.817661 0.000001 0.575700
vn -0.817662 0.000001 0.575699
vn -0.953832 0.000000 0.300342
vn -0.953832 0.000000 0.300342
vn -1.000000 0.000000 0.000000
vn -1.000000 0.000000 0.000000
vn -0.953832 0.000000 -0.300341
vn -0.953832 0.000000 -0.300341
vn -0.817662 -0.000000 -0.575699
vn -0.817662 -0.000000 -0.575699
vn -0.599854 0.000001 -0.800109
vn -0.599854 0.000001 -0.800109
vn -0.317891 -0.000000 -0.948128
vn -0.317891 -0.000000 -0.948127
vn 0.000000 -0.000002 -1.000000
vn 0.000000 -0.000002 -1.000000
vn 0.317889 -0.000001 -0.948128
vn 0.317890 -0.000001 -0.948128
vn 0.599855 -0.000001 -0.800109
vn 0.599854 -0.000001 -0.800109
vn 0.817660 -0.000001 -0.575701
vn 0.817660 -0.000001 -0.575701
vn 0.000000 0.000000 0.000000
vn 0.000000 0.000000 0.000000
vn 0.000000 0.000000 0.000000
vn 0.000000 0.000000 0.000000
vn 0.000000 0.000000 0.000000
vn 0.000000 0.000000 0.000000
vn 0.000000 0.000000 0.000000
vn 0.000000 0.000000 0.000000
vn 0.000000 0.000000 0.000000
vn 0.000000 0.000000 0.000000
vn 0.000000 0.000000 0.000000
vn 0.000000 0.000000 0.000000
vn 0.000000 0.000000 0.000000
vn 0.000000 0.000000 0.000000
vn 0.000000 0.000000 0.000000
vn 0.000000 0.000000 0.000000
vn 0.000000 0.000000 0.000000
vn 0.000000 0.000000 0.000000
vn 0.000000 0.000000 0.000000
vn 0.000000 0.000000 0.000000
vn 0.000000 0.000000 0.000000
vn 0.000000 0.000000 0.000000
vn 0.000000 0.000000 0.000000
vn 0.000000 0.000000 0.000000
vn 0.000000 0.000000 0.000000
vn 0.000000 0.000000 0.000000
vn 0.000000 0.000000 0.000000
vn 0.000000 0.000000 0.000000
vn 0.000000 0.000000 0.000000
vn 0.000000 0.000000 0.000000
vn 0.000000 0.000000 0.000000
vn 0.000000 0.000000 0.000000
vn 0.000000 0.000000 0.000000
vn 0.000000 0.000000 0.000000
vn 0.000000 0.000000 0.000000
vn 0.000000 0.000000 0.000000
vn 0.000000 0.000000 0.000000
vn 0.000000 0.000000 0.000000
vn 0.000000 0.000000 0.000000
vn 0.000000 0.000000 0.000000
vn 0.000000 0.000000 0.000000
vn 0.000000 0.000000 0.000000
vn 0.000000 0.000000 0.000000
vn 0.000000 0.000000 0.000000
vn 0.000000 0.000000 0.000000
vn 0.000000 0.000000 0.000000
vn 0.000000 0.000000 0.000000
vn 0.000000 0.000000 0.000000
vn 0.000000 0.000000 0.000000
vn 0.000000 0.000000 0.000000
vn 0.000000 0.000000 0.000000
vn 0.000000 0.000000 0.000000
vn 0.000000 0.000000 0.000000
vn 0.000000 0.000000 0.000000
vn 0.000000 0.000000 0.000000
vn 0.000000 0.000000 0.000000
vn 0.000000 0.000000 0.000000
vn 0.000000 0.000000 0.000000
vn 0.000000 0.000000 0.000000
vn 0.000000 0.000000 0.000000
vn 0.000000 0.000000 0.000000
vn 0.000000 0.000000 0.000000
vn 0.000000 0.000000 0.000000
vn 0.000000 0.000000 0.000000
vn 0.000000 0.000000 0.000000
vn 0.000000 1.000000 0.000000
vn 0.000000 1.000000 0.000000
vn 0.000000 0.000000 0.000000
vn 0.000000 0.000000 0.000000
vn 0.000000 0.000000 0.000000
vn 0.000000 0.000000 0.000000
vn 0.000000 0.000000 0.000000
vn 0.000000 0.999959 0.009032
vn 0.000000 0.000000 0.000000
vn 0.000000 0.000000 0.000000
vn 0.000000 0.999959 0.009032
vn 0.000000 0.000000 0.000000
vn 0.000000 0.000000 0.000000
vn 0.000000 0.000000 0.000000
vn 0.000000 0.000000 0.000000
vn 0.000000 0.000000 0.000000
vn 0.000000 0.000000 0.000000
vn 0.000000 0.000000 0.000000
vn 0.000000 0.000000 0.000000
vn 0.000000 0.000000 0.000000
vn 0.000000 0.000000 0.000000
vn 0.000000 0.000000 0.000000
vn 0.000000 0.000000 0.000000
vn 0.000000 0.000000 0.000000
vn 0.000000 0.000000 0.000000
vn 0.000000 0.000000 0.000000
vn 0.000000 0.000000 0.000000
vn 0.000000 0.000000 0.000000
vn 0.000000 0.000000 0.000000
vn 0.000000 0.000000 0.000000
vn 0.000000 0.000000 0.000000
vn 0.000000 0.000000 0.000000
vn 0.000000 0.000000 0.000000
vn 0.000000 0.000000 0.000000
vn 0.000000 0.000000 0.000000
vn 0.000000 0.000000 0.000000
vn 0.000000 0.000000 0.000000
vn 0.000000 0.000000 0.000000
vn 0.000000 0.000000 0.000000
vn 0.000000 0.000000 0.000000
vn 0.000000 0.000000 0.000000
vn 0.000000 0.000000 0.000000
vn 0.000000 0.000000 0.000000
vn 0.000000 0.000000 0.000000
vn 0.000000 0.000000 0.000000
vn 0.000000 0.000000 0.000000
vn 0.000000 0.000000 0.000000
vn 0.000000 0.000000 0.000000
vn 0.000000 0.000000 0.000000
vn 0.000000 0.000000 0.000000
vn 0.000000 0.000000 0.000000
vn 0.000000 0.000000 0.000000
vn 0.000000 0.000000 0.000000
vn 0.000000 0.000000 0.000000
vn 0.000000 0.000000 0.000000
vn 0.000000 0.000000 0.000000
vn 0.000000 0.000000 0.000000
vn 0.000000 0.000000 0.000000
vn 0.000000 0.000000 0.000000
vn 0.000000 0.000000 0.000000
vn 0.000000 0.000000 0.000000
vn 0.000000 0.000000 0.000000
vn 0.000000 0.000000 0.000000
vn 0.000000 0.000000 0.000000
vn 0.000000 0.000000 0.000000
vn 0.000000 0.000000 0.000000
vn 0.000000 0.000000 0.000000
vn 0.000000 0.000000 0.000000
vn 0.000000 0.000000 0.000000
vn 0.000000 0.000000 0.000000
vn 0.000000 0.000000 0.000000
vn 0.000000 0.000000 0.000000
vn 0.000000 0.000000 0.000000
vn 0.000000 0.000000 0.000000
vn 0.000000 0.000000 0.000000
vn 0.000000 0.000000 0.000000
vn 0.000000 0.000000 0.000000
vn 0.000000 0.000000 0.000000
vn 0.000000 0.000000 0.000000
vn 0.000000 0.000000 0.000000
vn 0.000000 0.000000 0.000000
vn 0.000000 0.000000 0.000000
vn 0.000000 0.000000 0.000000
vn 0.000000 0.000000 0.000000
vn 0.000000 0.000000 0.000000
vn 0.000000 0.000000 0.000000
vn 0.000000 0.000000 0.000000
vn 0.000000 0.000000 0.000000
vn 0.000000 0.000000 0.000000
vn 0.000000 0.000000 0.000000
vn 0.000000 0.000000 0.000000
vn 0.000000 0.000000 0.000000
vn 0.000000 0.000000 0.000000
vn 0.000000 0.000000 0.000000
vn 0.000000 0.000000 0.000000
vn 0.000000 -1.000000 0.000000
vn 0.000000 -1.000000 0.000000
vn 0.000000 -1.000000 0.000000
vn 0.000000 -1.000000 0.000000
vn 0.000000 -1.000000 0.000000
vn 0.000000 -1.000000 0.000000
vn 0.000000 -1.000000 0.000000
vn 0.000000 -1.000000 0.000000
vn 0.000004 -1.000000 0.000002
vn 0.000004 -1.000000 0.000002
vn 0.000004 -1.000000 0.000002
vn 0.000004 -1.000000 0.000002
vn 0.000000 -1.000000 0.000000
vn 0.000000 -1.000000 0.000000
vn 0.000000 -1.000000 0.000000
vn 0.000000 -1.000000 0.000000
vn 0.000000 -1.000000 -0.000000
vn 0.000000 -1.000000 -0.000000
vn 0.000000 -1.000000 -0.000000
vn 0.000000 -1.000000 -0.000000
vn -0.000004 -1.000000 0.000002
vn -0.000004 -1.000000 0.000002
vn -0.000004 -1.000000 0.000002
vn -0.000004 -1.000000 0.000002
vn 0.000000 -1.000000 0.000000
vn 0.000000 -1.000000 0.000000
vn 0.000000 -1.000000 0.000000
vn 0.000000 -1.000000 0.000000
vn 0.000000 -1.000000 0.000000
vn 0.000000 -1.000000 0.000000
vn 0.000000 -1.000000 0.000000
vn 0.000000 -1.000000 0.000000
vn 0.000000 -1.000000 0.000000
vn 0.000000 -1.000000 0.000000
vn 0.000000 -1.000000 0.000000
vn 0.000000 -1.000000 0.000000
vn -0.000001 -1.000000 -0.000005
vn -0.000001 -1.000000 -0.000005
vn -0.000001 -1.000000 -0.000005
vn -0.000001 -1.000000 -0.000005
vn 0.000000 -1.000000 0.000000
vn 0.000000 -1.000000 0.000000
vn 0.000000 -1.000000 0.000000
vn 0.000000 -1.000000 0.000000
vn 0.000000 -1.000000 -0.000000
vn 0.000000 -1.000000 -0.000000
vn 0.000000 -1.000000 -0.000000
vn 0.000000 -1.000000 -0.000000
vn 0.000004 -1.000000 0.000002
vn 0.000004 -1.000000 0.000002
vn 0.000004 -1.000000 0.000002
vn 0.000004 -1.000000 0.000002
vn 0.000000 -1.000000 0.000000
vn 0.000000 -1.000000 0.000000
vn 0.000000 -1.000000 0.000000
vn 0.000000 -1.000000 0.000000
vn 0.000000 -1.000000 -0.000000
vn 0.000000 -1.000000 -0.000000
vn 0.000000 -1.000000 -0.000000
vn 0.000000 -1.000000 -0.000000
vn -0.000004 -1.000000 0.000002
vn -0.000004 -1.000000 0.000002
vn -0.000004 -1.000000 0.000002
vn -0.000004 -1.000000 0.000002
vn 0.000000 -1.000000 -0.000000
vn 0.000000 -1.000000 -0.000000
vn 0.000000 -1.000000 -0.000000
vn 0.000000 -1.000000 -0.000000
vn 0.000000 -1.000000 0.000000
vn 0.000000 -1.000000 0.000000
vn 0.000000 -1.000000 0.000000
vn 0.000000 -1.000000 0.000000
vn 0.000001 -1.000000 -0.000005
vn 0.000001 -1.000000 -0.000005
vn 0.000001 -1.000000 -0.000005
vn 0.000001 -1.000000 -0.000005
vn 0.000000 -1.000000 0.000000
vn 0.000000 -1.000000 0.000000
vn 0.000000 -1.000000 0.000000
vn 0.000000 -1.000000 0.000000
vn 0.953400 0.030094 -0.300204
vn 0.817284 0.030326 -0.575437
vn 0.764291 0.355355 -0.538128
vn 0.892439 0.352971 -0.281006
vn 0.999550 0.030008 0.000003
vn 0.935972 0.352074 0.000005
vn 0.953400 0.030095 0.300204
vn 0.892439 0.352969 0.281007
vn 0.817286 0.030327 0.575434
vn 0.764293 0.355356 0.538124
vn 0.599574 0.030623 0.799733
vn 0.560010 0.358382 0.746961
vn 0.317741 0.030869 0.947675
vn 0.296472 0.360885 0.884232
vn 0.000000 0.030964 0.999520
vn 0.000000 0.361854 0.932235
vn -0.317741 0.030869 0.947675
vn -0.296472 0.360884 0.884233
vn -0.599572 0.030623 0.799735
vn -0.560009 0.358384 0.746961
vn -0.817286 0.030328 0.575434
vn -0.764292 0.355363 0.538122
vn -0.953400 0.030095 0.300203
vn -0.892437 0.352973 0.281008
vn -0.999550 0.030007 -0.000000
vn -0.935972 0.352074 0.000001
vn -0.953400 0.030095 -0.300203
vn -0.892437 0.352975 -0.281006
vn -0.817285 0.030328 -0.575435
vn -0.764290 0.355365 -0.538123
vn -0.599574 0.030623 -0.799733
vn -0.560009 0.358384 -0.746961
vn -0.317737 0.030869 -0.947676
vn -0.296467 0.360883 -0.884235
vn 0.000000 0.030964 -0.999520
vn 0.000000 0.361852 -0.932235
vn 0.317738 0.030869 -0.947676
vn 0.296467 0.360883 -0.884235
vn 0.599576 0.030623 -0.799732
vn 0.560012 0.358380 -0.746961
vn 0.822073 0.507142 -0.258849
vn 0.703306 0.510048 -0.495189
vn 0.673439 0.567144 -0.474160
vn 0.787536 0.564178 -0.247974
vn 0.862509 0.506042 0.000003
vn 0.826420 0.563054 0.000002
vn 0.822075 0.507138 0.258850
vn 0.787536 0.564177 0.247974
vn 0.703307 0.510048 0.495187
vn 0.673439 0.567146 0.474158
vn 0.514652 0.513714 0.686462
vn 0.492501 0.570877 0.656918
vn 0.272163 0.516738 0.811732
vn 0.260321 0.573950 0.776411
vn 0.000000 0.517907 0.855437
vn -0.000000 0.575138 0.818057
vn -0.272162 0.516738 0.811732
vn -0.260319 0.573950 0.776412
vn -0.514652 0.513714 0.686463
vn -0.492502 0.570877 0.656918
vn -0.703308 0.510048 0.495186
vn -0.673441 0.567143 0.474157
vn -0.822074 0.507139 0.258853
vn -0.787536 0.564176 0.247978
vn -0.862510 0.506041 0.000001
vn -0.826421 0.563053 0.000000
vn -0.822073 0.507140 -0.258852
vn -0.787537 0.564174 -0.247978
vn -0.703307 0.510049 -0.495187
vn -0.673443 0.567140 -0.474159
vn -0.514653 0.513712 -0.686464
vn -0.492504 0.570874 -0.656919
vn -0.272158 0.516734 -0.811736
vn -0.260315 0.573950 -0.776414
vn 0.000000 0.517903 -0.855439
vn -0.000000 0.575136 -0.818058
vn 0.272158 0.516735 -0.811736
vn 0.260316 0.573950 -0.776413
vn 0.514654 0.513712 -0.686463
vn 0.492503 0.570876 -0.656918
vn 0.000000 -1.000000 0.000000
vn 0.000000 -1.000000 0.000000
vn 0.000000 -1.000000 0.000000
vn 0.000000 -1.000000 0.000000
vn 0.000000 -1.000000 0.000001
vn 0.000000 -1.000000 0.000001
vn 0.000000 -1.000000 0.000001
vn 0.000000 -1.000000 0.000001
vn 0.000000 -1.000000 0.000002
vn 0.000000 -1.000000 0.000002
vn 0.000000 -1.000000 0.000002
vn 0.000000 -1.000000 0.000002
vn 0.000000 -1.000000 0.000001
vn 0.000000 -1.000000 0.000001
vn 0.000000 -1.000000 0.000001
vn 0.000000 -1.000000 0.000001
vn 0.000000 -1.000000 0.000000
vn 0.000000 -1.000000 0.000000
vn 0.000000 -1.000000 0.000000
vn 0.000000 -1.000000 0.000000
vn 0.000000 -1.000000 0.000000
vn 0.000000 -1.000000 0.000000
vn 0.000000 -1.000000 0.000000
vn 0.000000 -1.000000 0.000000
vn 0.000000 -1.000000 -0.000000
vn 0.000000 -1.000000 -0.000000
vn 0.000000 -1.000000 -0.000000
vn 0.000000 -1.000000 -0.000000
vn 0.000000 -1.000000 -0.000000
vn 0.000000 -1.000000 -0.000000
vn 0.000000 -1.000000 -0.000000
vn 0.000000 -1.000000 -0.000000
vn 0.000000 -1.000000 0.000000
vn 0.000000 -1.000000 0.000000
vn 0.000000 -1.000000 0.000000
vn 0.000000 -1.000000 0.000000
vn 0.000000 -1.000000 0.000000
vn 0.000000 -1.000000 0.000000
vn 0.000000 -1.000000 0.000000
vn 0.000000 -1.000000 0.000000
vn 0.000000 -1.000000 0.000000
vn 0.000000 -1.000000 0.000000
vn 0.000000 -1.000000 0.000000
vn 0.000000 -1.000000 0.000000
vn 0.000000 -1.000000 0.000001
vn 0.000000 -1.000000 0.000001
vn 0.000000 -1.000000 0.000001
vn 0.000000 -1.000000 0.000001
vn 0.000000 -1.000000 0.000000
vn 0.000000 -1.000000 0.000000
vn 0.000000 -1.000000 0.000000
vn 0.000000 -1.000000 0.000000
vn 0.000000 -1.000000 0.000000
vn 0.000000 -1.000000 0.000000
vn 0.000000 -1.000000 0.000000
vn 0.000000 -1.000000 0.000000
vn 0.000000 -1.000000 -0.000001
vn 0.000000 -1.000000 -0.000001
vn 0.000000 -1.000000 -0.000001
vn 0.000000 -1.000000 -0.000001
vn 0.000000 -1.000000 -0.000001
vn 0.000000 -1.000000 -0.000001
vn 0.000000 -1.000000 -0.000001
vn 0.000000 -1.000000 -0.000001
vn 0.000000 -1.000000 0.000000
vn 0.000000 -1.000000 0.000000
vn 0.000000 -1.000000 0.000000
vn 0.000000 -1.000000 0.000000
vn 0.000000 -1.000000 -0.000000
vn 0.000000 -1.000000 -0.000000
vn 0.000000 -1.000000 -0.000000
vn 0.000000 -1.000000 -0.000000
vn 0.000000 -1.000000 -0.000000
vn 0.000000 -1.000000 -0.000000
vn 0.000000 -1.000000 -0.000000
vn 0.000000 -1.000000 -0.000000
vn 0.000000 -1.000000 0.000000
vn 0.000000 -1.000000 0.000000
vn 0.000000 -1.000000 0.000000
vn 0.000000 -1.000000 0.000000
vn 0.817660 0.000000 -0.575701
vn 0.953832 -0.000000 -0.300341
vn 1.000000 -0.000000 0.000003
vn 0.953832 0.000000 0.300340
vn 0.817662 0.000000 0.575699
vn 0.599858 0.000000 0.800107
vn 0.317892 0.000000 0.948127
vn 0.000000 0.000000 1.000000
vn -0.317892 0.000000 0.948127
vn -0.599856 0.000000 0.800108
vn -0.817662 0.000000 0.575699
vn -0.953833 -0.000001 0.300338
vn -1.000000 -0.000001 0.000000
vn -0.953833 -0.000001 -0.300339
vn -0.817662 0.000000 -0.575699
vn -0.599856 0.000000 -0.800108
vn -0.317890 0.000000 -0.948128
vn 0.000000 0.000000 -1.000000
vn 0.317890 0.000000 -0.948128
vn 0.599857 0.000000 -0.800107
vn -0.263316 -0.955908 0.130017
vn -0.263316 -0.955908 0.130017
vn -0.263316 -0.955908 0.130017
vn -0.263316 -0.955908 0.130017
vn -0.209135 -0.956654 0.202668
vn -0.209135 -0.956655 0.202668
vn -0.209135 -0.956654 0.202668
vn -0.209135 -0.956655 0.202668
vn -0.134378 -0.957404 0.255579
vn -0.134378 -0.957404 0.255579
vn -0.134378 -0.957404 0.255579
vn -0.134378 -0.957404 0.255579
vn -0.046322 -0.957869 0.283445
vn -0.046322 -0.957869 0.283445
vn -0.046322 -0.957869 0.283445
vn -0.046322 -0.957869 0.283445
vn 0.046322 -0.957869 0.283446
vn 0.046322 -0.957869 0.283446
vn 0.046322 -0.957869 0.283446
vn 0.046322 -0.957869 0.283446
vn 0.134377 -0.957404 0.255580
vn 0.134377 -0.957404 0.255580
vn 0.134377 -0.957404 0.255580
vn 0.134377 -0.957404 0.255580
vn 0.209136 -0.956654 0.202668
vn 0.209136 -0.956654 0.202668
vn 0.209136 -0.956654 0.202668
vn 0.209136 -0.956654 0.202668
vn 0.263317 -0.955908 0.130017
vn 0.263317 -0.955908 0.130017
vn 0.263317 -0.955908 0.130017
vn 0.263317 -0.955908 0.130017
vn 0.291747 -0.955447 0.044784
vn 0.291747 -0.955447 0.044784
vn 0.291747 -0.955447 0.044784
vn 0.291747 -0.955447 0.044784
vn 0.291747 -0.955447 -0.044784
vn 0.291747 -0.955447 -0.044784
vn 0.291747 -0.955446 -0.044784
vn 0.291747 -0.955447 -0.044784
vn 0.263313 -0.955909 -0.130017
vn 0.263313 -0.955909 -0.130017
vn 0.263313 -0.955909 -0.130017
vn 0.263313 -0.955909 -0.130017
vn 0.209135 -0.956655 -0.202665
vn 0.209135 -0.956655 -0.202665
vn 0.209135 -0.956655 -0.202665
vn 0.209135 -0.956655 -0.202665
vn 0.134374 -0.957405 -0.255577
vn 0.134374 -0.957405 -0.255577
vn 0.134374 -0.957405 -0.255577
vn 0.134374 -0.957405 -0.255577
vn 0.046324 -0.957870 -0.283443
vn 0.046324 -0.957870 -0.283443
vn 0.046324 -0.957870 -0.283443
vn 0.046324 -0.957870 -0.283443
vn -0.046324 -0.957870 -0.283442
vn -0.046324 -0.957870 -0.283442
vn -0.046324 -0.957870 -0.283442
vn -0.046324 -0.957870 -0.283442
vn -0.134375 -0.957405 -0.255577
vn -0.134375 -0.957405 -0.255577
vn -0.134375 -0.957405 -0.255577
vn -0.134375 -0.957405 -0.255577
vn -0.209135 -0.956656 -0.202665
vn -0.209135 -0.956656 -0.202665
vn -0.209135 -0.956656 -0.202665
vn -0.209135 -0.956656 -0.202665
vn -0.263312 -0.955909 -0.130017
vn -0.263312 -0.955909 -0.130017
vn -0.263312 -0.955909 -0.130017
vn -0.263312 -0.955909 -0.130017
vn -0.291746 -0.955447 -0.044781
vn -0.291746 -0.955447 -0.044781
vn -0.291746 -0.955447 -0.044781
vn -0.291746 -0.955447 -0.044781
vn -0.291746 -0.955447 0.044781
vn -0.291746 -0.955447 0.044781
vn -0.291746 -0.955447 0.044781
vn -0.291746 -0.955447 0.044781
vn -0.000005 1.000000 -0.000009
vn -0.000005 1.000000 -0.000009
vn -0.000005 1.000000 -0.000009
vn -0.000005 1.000000 -0.000009
vn 0.000000 1.000000 0.000001
vn 0.000000 1.000000 0.000001
vn 0.000000 1.000000 0.000001
vn 0.000000 1.000000 0.000001
vn 0.000009 1.000000 0.000004
vn 0.000009 1.000000 0.000004
vn 0.000009 1.000000 0.000004
vn 0.000009 1.000000 0.000004
vn -0.000010 1.000000 -0.000002
vn -0.000010 1.000000 -0.000002
vn -0.000010 1.000000 -0.000002
vn -0.000010 1.000000 -0.000002
vn 0.000010 1.000000 -0.000002
vn 0.000010 1.000000 -0.000002
vn 0.000010 1.000000 -0.000002
vn 0.000010 1.000000 -0.000002
vn -0.000009 1.000000 0.000004
vn -0.000009 1.000000 0.000004
vn -0.000009 1.000000 0.000004
vn -0.000009 1.000000 0.000004
vn 0.000000 1.000000 0.000000
vn 0.000000 1.000000 0.000000
vn 0.000000 1.000000 0.000000
vn 0.000000 1.000000 0.000000
vn 0.000005 1.000000 -0.000009
vn 0.000005 1.000000 -0.000009
vn 0.000005 1.000000 -0.000009
vn 0.000005 1.000000 -0.000009
vn -0.000002 1.000000 0.000010
vn -0.000002 1.000000 0.000010
vn -0.000002 1.000000 0.000010
vn -0.000002 1.000000 0.000010
vn -0.000002 1.000000 -0.000010
vn -0.000002 1.000000 -0.000010
vn -0.000002 1.000000 -0.000010
vn -0.000002 1.000000 -0.000010
vn 0.000005 1.000000 0.000009
vn 0.000005 1.000000 0.000009
vn 0.000005 1.000000 0.000009
vn 0.000005 1.000000 0.000009
vn 0.000000 1.000000 -0.000001
vn 0.000000 1.000000 -0.000001
vn 0.000000 1.000000 -0.000001
vn 0.000000 1.000000 -0.000001
vn 0.000000 1.000000 -0.000001
vn 0.000000 1.000000 -0.000001
vn 0.000000 1.000000 -0.000001
vn 0.000000 1.000000 -0.000001
vn 0.000000 1.000000 0.000000
vn 0.000000 1.000000 0.000000
vn 0.000000 1.000000 0.000000
vn 0.000000 1.000000 0.000000
vn -0.000010 1.000000 0.000002
vn -0.000010 1.000000 0.000002
vn -0.000010 1.000000 0.000002
vn -0.000010 1.000000 0.000002
vn 0.000009 1.000000 -0.000005
vn 0.000009 1.000000 -0.000005
vn 0.000009 1.000000 -0.000005
vn 0.000009 1.000000 -0.000005
vn 0.000000 1.000000 0.000001
vn 0.000000 1.000000 0.000001
vn 0.000000 1.000000 0.000001
vn 0.000000 1.000000 0.000001
vn -0.000005 1.000000 0.000009
vn -0.000005 1.000000 0.000009
vn -0.000005 1.000000 0.000009
vn -0.000005 1.000000 0.000009
vn 0.000002 1.000000 -0.000010
vn 0.000002 1.000000 -0.000010
vn 0.000002 1.000000 -0.000010
vn 0.000002 1.000000 -0.000010
vn 0.000002 1.000000 0.000010
vn 0.000002 1.000000 0.000010
vn 0.000002 1.000000 0.000010
vn 0.000002 1.000000 0.000010
vn 0.896649 0.000000 -0.442743
vn 0.896649 0.000000 -0.442743
vn 0.896649 0.000000 -0.442743
vn 0.896649 0.000000 -0.442743
vn 0.718123 0.000000 -0.695917
vn 0.718123 0.000000 -0.695917
vn 0.718123 0.000000 -0.695917
vn 0.718123 0.000000 -0.695917
vn 0.465365 0.000000 -0.885119
vn 0.465365 0.000000 -0.885119
vn 0.465365 0.000000 -0.885119
vn 0.465365 0.000000 -0.885119
vn 0.161306 0.000000 -0.986904
vn 0.161306 0.000000 -0.986905
vn 0.161306 0.000000 -0.986904
vn 0.161306 0.000000 -0.986904
vn -0.161306 0.000000 -0.986905
vn -0.161306 0.000000 -0.986905
vn -0.161306 0.000000 -0.986905
vn -0.161306 0.000000 -0.986905
vn -0.465370 0.000000 -0.885116
vn -0.465370 0.000000 -0.885116
vn -0.465370 0.000000 -0.885116
vn -0.465370 0.000000 -0.885116
vn -0.718119 0.000000 -0.695921
vn -0.718119 0.000000 -0.695921
vn -0.718119 0.000000 -0.695921
vn -0.718119 0.000000 -0.695921
vn -0.896651 0.000000 -0.442738
vn -0.896651 0.000000 -0.442738
vn -0.896651 0.000000 -0.442738
vn -0.896651 0.000000 -0.442738
vn -0.988424 0.000000 -0.151720
vn -0.988424 0.000000 -0.151720
vn -0.988424 0.000000 -0.151720
vn -0.988424 0.000000 -0.151720
vn -0.988424 0.000000 0.151720
vn -0.988424 0.000000 0.151720
vn -0.988424 0.000000 0.151720
vn -0.988424 0.000000 0.151720
vn -0.896650 0.000000 0.442740
vn -0.896650 0.000000 0.442740
vn -0.896650 0.000000 0.442740
vn -0.896650 0.000000 0.442740
vn -0.718118 0.000000 0.695921
vn -0.718118 0.000000 0.695921
vn -0.718118 0.000000 0.695921
vn -0.718118 0.000000 0.695921
vn -0.465383 0.000000 0.885109
vn -0.465383 0.000000 0.885109
vn -0.465383 0.000000 0.885109
vn -0.465383 0.000000 0.885109
vn -0.161291 0.000000 0.986907
vn -0.161291 0.000000 0.986907
vn -0.161291 0.000000 0.986907
vn -0.161291 0.000000 0.986907
vn 0.161300 0.000000 0.986905
vn 0.161300 0.000000 0.986905
vn 0.161300 0.000000 0.986905
vn 0.161300 0.000000 0.986905
vn 0.465380 0.000000 0.885111
vn 0.465380 0.000000 0.885111
vn 0.465380 0.000000 0.885111
vn 0.465380 0.000000 0.885111
vn 0.718113 0.000000 0.695926
vn 0.718113 0.000000 0.695926
vn 0.718113 0.000000 0.695926
vn 0.718113 0.000000 0.695926
vn 0.896648 0.000000 0.442745
vn 0.896648 0.000000 0.442745
vn 0.896647 0.000000 0.442745
vn 0.896648 0.000000 0.442745
vn 0.988426 0.000000 0.151705
vn 0.988426 0.000000 0.151705
vn 0.988426 0.000000 0.151705
vn 0.988426 0.000000 0.151705
vn 0.988426 0.000000 -0.151705
vn 0.988426 0.000000 -0.151705
vn 0.988426 0.000000 -0.151705
vn 0.988426 0.000000 -0.151705
vn 0.953832 0.000000 -0.300340
vn 0.817659 0.000000 -0.575702
vn 1.000000 0.000000 0.000003
vn 0.953832 0.000000 0.300340
vn 0.817662 0.000000 0.575699
vn 0.599856 0.000000 0.800108
vn 0.317893 0.000001 0.948127
vn 0.000000 0.000001 1.000000
vn -0.317893 0.000001 0.948127
vn -0.599854 0.000000 0.800109
vn -0.817662 0.000000 0.575699
vn -0.953832 -0.000000 0.300339
vn -1.000000 -0.000001 0.000000
vn -0.953832 -0.000000 -0.300339
vn -0.817661 0.000000 -0.575700
vn -0.599855 0.000000 -0.800108
vn -0.317889 0.000000 -0.948128
vn 0.000000 0.000001 -1.000000
vn 0.317889 0.000000 -0.948128
vn 0.599857 0.000000 -0.800107
vn 0.953832 -0.000000 -0.300340
vn 0.817660 -0.000000 -0.575701
vn 0.817660 -0.000000 -0.575701
vn 0.953832 -0.000000 -0.300340
vn 1.000000 -0.000000 0.000003
vn 1.000000 -0.000000 0.000003
vn 0.953832 -0.000000 0.300341
vn 0.953832 -0.000000 0.300340
vn 0.817662 -0.000000 0.575699
vn 0.817662 -0.000000 0.575699
vn 0.599856 0.000000 0.800108
vn 0.599856 0.000000 0.800108
vn 0.317892 0.000000 0.948127
vn 0.317892 0.000000 0.948127
vn 0.000000 0.000000 1.000000
vn 0.000000 0.000000 1.000000
vn -0.317892 0.000000 0.948127
vn -0.317892 0.000000 0.948127
vn -0.599855 0.000000 0.800109
vn -0.599855 0.000000 0.800109
vn -0.817662 -0.000000 0.575698
vn -0.817662 -0.000000 0.575699
vn -0.953833 -0.000000 0.300339
vn -0.953833 -0.000000 0.300339
vn -1.000000 -0.000000 -0.000000
vn -1.000000 -0.000000 -0.000000
vn -0.953833 -0.000000 -0.300339
vn -0.953832 -0.000000 -0.300339
vn -0.817662 0.000000 -0.575699
vn -0.817661 0.000000 -0.575699
vn -0.599856 0.000000 -0.800108
vn -0.599856 0.000000 -0.800108
vn -0.317889 0.000000 -0.948128
vn -0.317889 0.000000 -0.948128
vn 0.000000 0.000000 -1.000000
vn 0.000000 0.000000 -1.000000
vn 0.317889 0.000000 -0.948128
vn 0.317889 0.000000 -0.948128
vn 0.599857 0.000000 -0.800107
vn 0.599857 0.000000 -0.800107
vn -0.000002 -1.000000 -0.000005
vn -0.000002 -1.000000 -0.000005
vn -0.000002 -1.000000 -0.000005
vn -0.000002 -1.000000 -0.000005
vn -0.000002 1.000000 -0.000004
vn -0.000002 1.000000 -0.000004
vn -0.000002 1.000000 -0.000004
vn -0.000002 1.000000 -0.000004
vn 0.000001 -1.000000 0.000004
vn 0.000001 -1.000000 0.000004
vn 0.000001 -1.000000 0.000004
vn 0.000001 -1.000000 0.000004
vn 0.000001 1.000000 0.000004
vn 0.000001 1.000000 0.000004
vn 0.000001 1.000000 0.000004
vn 0.000001 1.000000 0.000004
vn 0.000001 -1.000000 -0.000004
vn 0.000001 -1.000000 -0.000004
vn 0.000001 -1.000000 -0.000004
vn 0.000001 -1.000000 -0.000004
vn 0.000000 1.000000 0.000000
vn 0.000000 1.000000 0.000000
vn 0.000000 1.000000 0.000000
vn 0.000000 1.000000 0.000000
vn 0.000000 -1.000000 0.000001
vn 0.000000 -1.000000 0.000001
vn 0.000000 -1.000000 0.000001
vn 0.000000 -1.000000 0.000001
vn 0.000000 1.000000 0.000000
vn 0.000000 1.000000 0.000000
vn 0.000000 1.000000 0.000000
vn 0.000000 1.000000 0.000000
vn -0.000003 -1.000000 0.000003
vn -0.000003 -1.000000 0.000003
vn -0.000003 -1.000000 0.000003
vn -0.000003 -1.000000 0.000003
vn 0.000000 1.000000 0.000000
vn 0.000000 1.000000 0.000000
vn 0.000000 1.000000 0.000000
vn 0.000000 1.000000 0.000000
vn 0.000004 -1.000000 -0.000000
vn 0.000004 -1.000000 -0.000000
vn 0.000004 -1.000000 -0.000000
vn 0.000004 -1.000000 -0.000000
vn 0.000004 1.000000 -0.000002
vn 0.000004 1.000000 -0.000002
vn 0.000004 1.000000 -0.000002
vn 0.000004 1.000000 -0.000002
vn 0.000000 -1.000000 -0.000002
vn 0.000000 -1.000000 -0.000002
vn 0.000000 -1.000000 -0.000002
vn 0.000000 -1.000000 -0.000002
vn 0.000000 1.000000 -0.000000
vn 0.000000 1.000000 -0.000000
vn 0.000000 1.000000 -0.000000
vn 0.000000 1.000000 -0.000000
vn 0.000000 -1.000000 0.000002
vn 0.000000 -1.000000 0.000002
vn 0.000000 -1.000000 0.000002
vn 0.000000 -1.000000 0.000002
vn 0.000000 1.000000 -0.000000
vn 0.000000 1.000000 -0.000000
vn 0.000000 1.000000 -0.000000
vn 0.000000 1.000000 -0.000000
vn -0.000004 -1.000000 -0.000003
vn -0.000004 -1.000000 -0.000003
vn -0.000004 -1.000000 -0.000003
vn -0.000004 -1.000000 -0.000003
vn -0.000004 1.000000 -0.000002
vn -0.000004 1.000000 -0.000002
vn -0.000004 1.000000 -0.000002
vn -0.000004 1.000000 -0.000002
vn 0.000003 -1.000000 0.000001
vn 0.000003 -1.000000 0.000001
vn 0.000003 -1.000000 0.000001
vn 0.000003 -1.000000 0.000001
vn 0.000000 1.000000 0.000000
vn 0.000000 1.000000 0.000000
vn 0.000000 1.000000 0.000000
vn 0.000000 1.000000 0.000000
vn 0.000000 -1.000000 -0.000000
vn 0.000000 -1.000000 -0.000000
vn 0.000000 -1.000000 -0.000000
vn 0.000000 -1.000000 -0.000000
vn 0.000000 1.000000 0.000000
vn 0.000000 1.000000 0.000000
vn 0.000000 1.000000 0.000000
vn 0.000000 1.000000 0.000000
vn -0.000001 -1.000000 -0.000004
vn -0.000001 -1.000000 -0.000004
vn -0.000001 -1.000000 -0.000004
vn -0.000001 -1.000000 -0.000004
vn 0.000000 1.000000 -0.000000
vn 0.000000 1.000000 -0.000000
vn 0.000000 1.000000 -0.000000
vn 0.000000 1.000000 -0.000000
vn -0.000001 -1.000000 0.000004
vn -0.000001 -1.000000 0.000004
vn -0.000001 -1.000000 0.000004
vn -0.000001 -1.000000 0.000004
vn -0.000001 1.000000 0.000004
vn -0.000001 1.000000 0.000004
vn -0.000001 1.000000 0.000004
vn -0.000001 1.000000 0.000004
vn 0.000002 -1.000000 -0.000004
vn 0.000002 -1.000000 -0.000004
vn 0.000002 -1.000000 -0.000004
vn 0.000002 -1.000000 -0.000004
vn 0.000000 1.000000 0.000000
vn 0.000000 1.000000 0.000000
vn 0.000000 1.000000 0.000000
vn 0.000000 1.000000 0.000000
vn 0.000000 -1.000000 -0.000000
vn 0.000000 -1.000000 -0.000000
vn 0.000000 -1.000000 -0.000000
vn 0.000000 -1.000000 -0.000000
vn 0.000003 1.000000 -0.000003
vn 0.000003 1.000000 -0.000003
vn 0.000003 1.000000 -0.000003
vn 0.000003 1.000000 -0.000003
vn 0.000000 -1.000000 0.000000
vn 0.000000 -1.000000 0.000000
vn 0.000000 -1.000000 0.000000
vn 0.000000 -1.000000 0.000000
vn 0.000000 1.000000 -0.000000
vn 0.000000 1.000000 -0.000000
vn 0.000000 1.000000 -0.000000
vn 0.000000 1.000000 -0.000000
vn -0.000004 -1.000000 0.000001
vn -0.000004 -1.000000 0.000001
vn -0.000004 -1.000000 0.000001
vn -0.000004 -1.000000 0.000001
vn 0.000000 1.000000 -0.000000
vn 0.000000 1.000000 -0.000000
vn 0.000000 1.000000 -0.000000
vn 0.000000 1.000000 -0.000000
vn 0.000004 -1.000000 0.000003
vn 0.000004 -1.000000 0.000003
vn 0.000004 -1.000000 0.000003
vn 0.000004 -1.000000 0.000003
vn 0.000000 1.000000 0.000000
vn 0.000000 1.000000 0.000000
vn 0.000000 1.000000 0.000000
vn 0.000000 1.000000 0.000000
vn 0.000000 -1.000000 0.000003
vn 0.000000 -1.000000 0.000003
vn 0.000000 -1.000000 0.000003
vn 0.000000 -1.000000 0.000003
vn 0.000000 1.000000 0.000000
vn 0.000000 1.000000 0.000000
vn 0.000000 1.000000 0.000000
vn 0.000000 1.000000 0.000000
vn 0.000000 -1.000000 -0.000000
vn 0.000000 -1.000000 -0.000000
vn 0.000000 -1.000000 -0.000000
vn 0.000000 -1.000000 -0.000000
vn 0.000000 1.000000 -0.000000
vn 0.000000 1.000000 -0.000000
vn 0.000000 1.000000 -0.000000
vn 0.000000 1.000000 -0.000000
s 1
g PillBottleBaseMesh
usemtl initialShadingGroup
f 61/106/1 62/107/2 181/232/3 182/234/4
f 62/107/2 65/110/5 200/252/6 181/232/3
f 65/110/5 67/112/7 199/251/8 200/252/6
f 67/112/7 69/114/9 198/250/10 199/251/8
f 69/114/9 71/116/11 197/249/12 198/250/10
f 71/116/11 73/118/13 196/248/14 197/249/12
f 73/118/13 75/120/15 195/247/16 196/248/14
f 75/120/15 77/122/17 194/246/18 195/247/16
f 77/122/17 79/124/19 193/245/20 194/246/18
f 79/124/19 81/126/21 192/244/22 193/245/20
f 81/126/21 83/128/23 191/243/24 192/244/22
f 83/128/23 85/130/25 190/242/26 191/243/24
f 85/130/25 87/132/27 189/241/28 190/242/26
f 87/132/27 89/134/29 188/240/30 189/241/28
f 89/134/29 91/136/31 187/239/32 188/240/30
f 91/136/31 93/138/33 186/238/34 187/239/32
f 93/138/33 95/140/35 185/237/36 186/238/34
f 95/140/35 97/142/37 184/236/38 185/237/36
f 97/142/37 99/144/39 183/235/40 184/236/38
f 99/144/39 61/146/1 182/233/4 183/235/40
s 2
f 202/253/41 201/254/42 203/211/43 204/83/44
f 205/255/45 202/253/41 204/83/44
f 206/256/46 205/255/45 204/83/44
f 207/257/47 206/256/46 204/83/44
f 208/258/48 207/257/47 204/83/44
f 209/259/49 208/258/48 204/83/44
f 210/260/50 209/259/49 204/83/44
f 211/261/51 210/260/50 204/83/44
f 212/262/52 211/261/51 204/83/44
f 213/263/53 212/262/52 204/83/44
f 214/264/54 213/263/53 204/83/44
f 215/265/55 214/264/54 204/83/44
f 216/266/56 215/265/55 204/83/44
f 217/267/57 216/266/56 204/83/44
f 218/268/58 217/267/57 204/83/44
f 219/269/59 218/268/58 204/83/44
f 220/270/60 219/269/59 204/83/44
f 221/271/61 220/270/60 204/83/44
f 222/272/62 221/271/61 204/83/44
f 201/254/42 222/272/62 204/83/44 203/211/43
s 3
f 243/293/63 244/294/64 245/84/65
f 244/294/64 246/295/66 245/84/65
f 246/295/66 247/296/67 245/84/65
f 247/296/67 248/297/68 245/84/65
f 248/297/68 249/298/69 245/84/65
f 249/298/69 250/299/70 245/84/65
f 250/299/70 251/300/71 245/84/65
f 251/300/71 252/301/72 245/84/65
f 252/301/72 253/302/73 245/84/65
f 253/302/73 254/303/74 245/84/65
f 254/303/74 255/304/75 245/84/65
f 255/304/75 256/305/76 245/84/65
f 256/305/76 257/306/77 245/84/65
f 257/306/77 258/307/78 245/84/65
f 258/307/78 259/308/79 245/84/65
f 259/308/79 260/309/80 245/84/65
f 260/309/80 261/310/81 245/84/65
f 261/310/81 262/311/82 245/84/65
f 262/311/82 263/312/83 245/84/65
f 263/312/83 243/293/63 245/84/65
s 4
f 22/87/84 21/85/85 1/62/86 20/61/87
f 23/88/88 22/87/84 20/61/87 19/60/89
f 24/89/90 23/88/88 19/60/89 18/59/91
f 25/90/92 24/89/90 18/59/91 17/58/93
f 26/91/94 25/90/92 17/58/93 16/57/95
f 27/92/96 26/91/94 16/57/95 15/56/97
f 28/93/98 27/92/96 15/56/97 14/55/99
f 29/94/100 28/93/98 14/55/99 13/54/101
f 30/95/102 29/94/100 13/54/101 12/53/103
f 31/96/104 30/95/102 12/53/103 11/52/105
f 32/97/106 31/96/104 11/52/105 10/51/107
f 33/98/108 32/97/106 10/51/107 9/50/109
f 34/99/110 33/98/108 9/50/109 8/49/111
f 35/100/112 34/99/110 8/49/111 7/48/113
f 36/101/114 35/100/112 7/48/113 6/47/115
f 37/102/116 36/101/114 6/47/115 5/46/117
f 38/103/118 37/102/116 5/46/117 4/45/119
f 39/104/120 38/103/118 4/45/119 3/44/121
f 40/105/122 39/104/120 3/44/121 2/43/123
f 21/86/85 40/105/122 2/43/123 1/42/86
s off
f 101/21/124 102/22/125 62/107/126 61/106/127
f 40/105/128 21/86/129 42/109/130 41/108/131
f 102/22/132 103/23/133 65/110/134 62/107/135
f 39/104/136 40/105/137 41/108/138 43/111/139
f 103/23/140 104/24/141 67/112/142 65/110/143
f 38/103/144 39/104/145 43/111/146 44/113/147
f 104/24/148 105/25/149 69/114/150 67/112/151
f 37/102/152 38/103/153 44/113/154 45/115/155
f 105/25/156 106/26/157 71/116/158 69/114/159
f 36/101/160 37/102/161 45/115/162 46/117/163
f 106/26/164 107/27/165 73/118/166 71/116/167
f 35/100/168 36/101/169 46/117/170 47/119/171
f 107/27/172 108/28/173 75/120/174 73/118/175
f 34/99/176 35/100/177 47/119/178 48/121/179
f 108/28/180 109/29/181 77/122/182 75/120/183
f 33/98/184 34/99/185 48/121/186 49/123/187
f 109/29/188 110/30/189 79/124/190 77/122/191
f 32/97/192 33/98/193 49/123/194 50/125/195
f 110/30/196 111/31/197 81/126/198 79/124/199
f 31/96/200 32/97/201 50/125/202 51/127/203
f 111/31/204 112/32/205 83/128/206 81/126/207
f 30/95/208 31/96/209 51/127/210 52/129/211
f 112/32/212 113/33/213 85/130/214 83/128/215
f 29/94/216 30/95/217 52/129/218 53/131/219
f 113/33/220 114/34/221 87/132/222 85/130/223
f 28/93/224 29/94/225 53/131/226 54/133/227
f 114/34/228 115/35/229 89/134/230 87/132/231
f 27/92/232 28/93/233 54/133/234 55/135/235
f 115/35/236 116/36/237 91/136/238 89/134/239
f 26/91/240 27/92/241 55/135/242 56/137/243
f 116/36/244 117/37/245 93/138/246 91/136/247
f 25/90/248 26/91/249 56/137/250 57/139/251
f 117/37/252 118/38/253 95/140/254 93/138/255
f 24/89/256 25/90/257 57/139/258 58/141/259
f 118/38/260 119/39/261 97/142/262 95/140/263
f 23/88/264 24/89/265 58/141/266 59/143/267
f 119/39/268 120/40/269 99/144/270 97/142/271
f 22/87/272 23/88/273 59/143/274 60/145/275
f 120/40/276 101/41/277 61/146/278 99/144/279
f 21/85/280 22/87/281 60/145/282 42/147/283
f 41/108/284 42/109/285 64/149/286 63/148/287
f 43/111/288 41/108/289 63/148/290 66/150/291
f 44/113/292 43/111/293 66/150/294 68/151/295
f 45/115/296 44/113/297 68/151/298 70/152/299
f 46/117/300 45/115/301 70/152/302 72/153/303
f 47/119/304 46/117/305 72/153/306 74/154/307
f 48/121/308 47/119/309 74/154/310 76/155/311
f 49/123/312 48/121/313 76/155/314 78/156/315
f 50/125/316 49/123/317 78/156/318 80/157/319
f 51/127/320 50/125/321 80/157/322 82/158/323
f 52/129/324 51/127/325 82/158/326 84/159/327
f 53/131/328 52/129/329 84/159/330 86/160/331
f 54/133/332 53/131/333 86/160/334 88/161/335
f 55/135/336 54/133/337 88/161/338 90/162/339
f 56/137/340 55/135/341 90/162/342 92/163/343
f 57/139/344 56/137/345 92/163/346 94/164/347
f 58/141/348 57/139/349 94/164/350 96/165/351
f 59/143/352 58/141/353 96/165/354 98/166/355
f 60/145/356 59/143/357 98/166/358 100/167/359
f 42/147/360 60/145/361 100/167/362 64/168/363
s 5
f 122/171/364 121/169/365 304/355/366 305/357/367
f 123/172/368 122/170/364 305/356/367 306/358/369
f 124/173/370 123/172/368 306/358/369 307/359/371
f 125/174/372 124/173/370 307/359/371 308/360/373
f 126/175/374 125/174/372 308/360/373 309/361/375
f 127/176/376 126/175/374 309/361/375 310/362/377
f 128/177/378 127/176/376 310/362/377 311/363/379
f 129/178/380 128/177/378 311/363/379 312/364/381
f 130/179/382 129/178/380 312/364/381 313/365/383
f 131/180/384 130/179/382 313/365/383 314/366/385
f 132/181/386 131/180/384 314/366/385 315/367/387
f 133/182/388 132/181/386 315/367/387 316/368/389
f 134/183/390 133/182/388 316/368/389 317/369/391
f 135/184/392 134/183/390 317/369/391 318/370/393
f 136/185/394 135/184/392 318/370/393 319/371/395
f 137/186/396 136/185/394 319/371/395 320/372/397
f 138/187/398 137/186/396 320/372/397 321/373/399
f 139/188/400 138/187/398 321/373/399 322/374/401
f 140/189/402 139/188/400 322/374/401 323/375/403
f 121/169/365 140/189/402 323/375/403 304/355/366
f 142/192/404 141/190/405 63/148/406 64/149/407
f 143/193/408 142/191/404 64/168/407 100/167/409
f 144/194/410 143/193/408 100/167/409 98/166/411
f 145/195/412 144/194/410 98/166/411 96/165/413
f 146/196/414 145/195/412 96/165/413 94/164/415
f 147/197/416 146/196/414 94/164/415 92/163/417
f 148/198/418 147/197/416 92/163/417 90/162/419
f 149/199/420 148/198/418 90/162/419 88/161/421
f 150/200/422 149/199/420 88/161/421 86/160/423
f 151/201/424 150/200/422 86/160/423 84/159/425
f 152/202/426 151/201/424 84/159/425 82/158/427
f 153/203/428 152/202/426 82/158/427 80/157/429
f 154/204/430 153/203/428 80/157/429 78/156/431
f 155/205/432 154/204/430 78/156/431 76/155/433
f 156/206/434 155/205/432 76/155/433 74/154/435
f 157/207/436 156/206/434 74/154/435 72/153/437
f 158/208/438 157/207/436 72/153/437 70/152/439
f 159/209/440 158/208/438 70/152/439 68/151/441
f 160/210/442 159/209/440 68/151/441 66/150/443
f 141/190/405 160/210/442 66/150/443 63/148/406
s off
f 102/2/444 101/1/445 161/213/446 162/212/447
f 103/3/448 102/2/449 162/212/450 163/214/451
f 104/4/452 103/3/453 163/214/454 164/215/455
f 105/5/456 104/4/457 164/215/458 165/216/459
f 106/6/460 105/5/461 165/216/462 166/217/463
f 107/7/464 106/6/465 166/217/466 167/218/467
f 108/8/468 107/7/469 167/218/470 168/219/471
f 109/9/472 108/8/473 168/219/474 169/220/475
f 110/10/476 109/9/477 169/220/478 170/221/479
f 111/11/480 110/10/481 170/221/482 171/222/483
f 112/12/484 111/11/485 171/222/486 172/223/487
f 113/13/488 112/12/489 172/223/490 173/224/491
f 114/14/492 113/13/493 173/224/494 174/225/495
f 115/15/496 114/14/497 174/225/498 175/226/499
f 116/16/500 115/15/501 175/226/502 176/227/503
f 117/17/504 116/16/505 176/227/506 177/228/507
f 118/18/508 117/17/509 177/228/510 178/229/511
f 119/19/512 118/18/513 178/229/514 179/230/515
f 120/20/516 119/19/517 179/230/518 180/231/519
f 101/1/520 120/20/521 180/231/522 161/213/523
s 1
f 182/234/4 181/232/3 284/334/524 285/336/525
f 183/235/40 182/233/4 285/335/525 286/337/526
f 184/236/38 183/235/40 286/337/526 287/338/527
f 185/237/36 184/236/38 287/338/527 288/339/528
f 186/238/34 185/237/36 288/339/528 289/340/529
f 187/239/32 186/238/34 289/340/529 290/341/530
f 188/240/30 187/239/32 290/341/530 291/342/531
f 189/241/28 188/240/30 291/342/531 292/343/532
f 190/242/26 189/241/28 292/343/532 293/344/533
f 191/243/24 190/242/26 293/344/533 294/345/534
f 192/244/22 191/243/24 294/345/534 295/346/535
f 193/245/20 192/244/22 295/346/535 296/347/536
f 194/246/18 193/245/20 296/347/536 297/348/537
f 195/247/16 194/246/18 297/348/537 298/349/538
f 196/248/14 195/247/16 298/349/538 299/350/539
f 197/249/12 196/248/14 299/350/539 300/351/540
f 198/250/10 197/249/12 300/351/540 301/352/541
f 199/251/8 198/250/10 301/352/541 302/353/542
f 200/252/6 199/251/8 302/353/542 303/354/543
f 181/232/3 200/252/6 303/354/543 284/334/524
s off
f 162/212/544 161/213/545 201/254/546 202/253/547
f 163/214/548 162/212/549 202/253/550 205/255/551
f 164/215/552 163/214/553 205/255/554 206/256/555
f 165/216/556 164/215/557 206/256/558 207/257/559
f 166/217/560 165/216/561 207/257/562 208/258/563
f 167/218/564 166/217/565 208/258/566 209/259/567
f 168/219/568 167/218/569 209/259/570 210/260/571
f 169/220/572 168/219/573 210/260/574 211/261/575
f 170/221/576 169/220/577 211/261/578 212/262/579
f 171/222/580 170/221/581 212/262/582 213/263/583
f 172/223/584 171/222/585 213/263/586 214/264/587
f 173/224/588 172/223/589 214/264/590 215/265/591
f 174/225/592 173/224/593 215/265/594 216/266/595
f 175/226/596 174/225/597 216/266/598 217/267/599
f 176/227/600 175/226/601 217/267/602 218/268/603
f 177/228/604 176/227/605 218/268/606 219/269/607
f 178/229/608 177/228/609 219/269/610 220/270/611
f 179/230/612 178/229/613 220/270/614 221/271/615
f 180/231/616 179/230/617 221/271/618 222/272/619
f 161/213/620 180/231/621 222/272/622 201/254/623
f 1/81/624 2/80/625 224/274/626 223/273/627
f 2/80/628 3/79/629 225/275/630 224/274/631
f 3/79/632 4/78/633 226/276/634 225/275/635
f 4/78/636 5/77/637 227/277/638 226/276/639
f 5/77/640 6/76/641 228/278/642 227/277/643
f 6/76/644 7/75/645 229/279/646 228/278/647
f 7/75/648 8/74/649 230/280/650 229/279/651
f 8/74/652 9/73/653 231/281/654 230/280/655
f 9/73/656 10/72/657 232/282/658 231/281/659
f 10/72/660 11/71/661 233/283/662 232/282/663
f 11/71/664 12/70/665 234/284/666 233/283/667
f 12/70/668 13/69/669 235/285/670 234/284/671
f 13/69/672 14/68/673 236/286/674 235/285/675
f 14/68/676 15/67/677 237/287/678 236/286/679
f 15/67/680 16/66/681 238/288/682 237/287/683
f 16/66/684 17/65/685 239/289/686 238/288/687
f 17/65/688 18/64/689 240/290/690 239/289/691
f 18/64/692 19/63/693 241/291/694 240/290/695
f 19/63/696 20/82/697 242/292/698 241/291/699
f 20/82/700 1/81/701 223/273/702 242/292/703
f 223/273/704 224/274/705 244/294/706 243/293/707
f 224/274/708 225/275/709 246/295/710 244/294/711
f 225/275/712 226/276/713 247/296/714 246/295/715
f 226/276/716 227/277/717 248/297/718 247/296/719
f 227/277/720 228/278/721 249/298/722 248/297/723
f 228/278/724 229/279/725 250/299/726 249/298/727
f 229/279/728 230/280/729 251/300/730 250/299/731
f 230/280/732 231/281/733 252/301/734 251/300/735
f 231/281/736 232/282/737 253/302/738 252/301/739
f 232/282/740 233/283/741 254/303/742 253/302/743
f 233/283/744 234/284/745 255/304/746 254/303/747
f 234/284/748 235/285/749 256/305/750 255/304/751
f 235/285/752 236/286/753 257/306/754 256/305/755
f 236/286/756 237/287/757 258/307/758 257/306/759
f 237/287/760 238/288/761 259/308/762 258/307/763
f 238/288/764 239/289/765 260/309/766 259/308/767
f 239/289/768 240/290/769 261/310/770 260/309/771
f 240/290/772 241/291/773 262/311/774 261/310/775
f 241/291/776 242/292/777 263/312/778 262/311/779
f 242/292/780 223/273/781 243/293/782 263/312/783
s 5
f 265/315/784 264/313/785 121/169/365 122/171/364
f 266/316/786 265/314/784 122/170/364 123/172/368
f 267/317/787 266/316/786 123/172/368 124/173/370
f 268/318/788 267/317/787 124/173/370 125/174/372
f 269/319/789 268/318/788 125/174/372 126/175/374
f 270/320/790 269/319/789 126/175/374 127/176/376
f 271/321/791 270/320/790 127/176/376 128/177/378
f 272/322/792 271/321/791 128/177/378 129/178/380
f 273/323/793 272/322/792 129/178/380 130/179/382
f 274/324/794 273/323/793 130/179/382 131/180/384
f 275/325/795 274/324/794 131/180/384 132/181/386
f 276/326/796 275/325/795 132/181/386 133/182/388
f 277/327/797 276/326/796 133/182/388 134/183/390
f 278/328/798 277/327/797 134/183/390 135/184/392
f 279/329/799 278/328/798 135/184/392 136/185/394
f 280/330/800 279/329/799 136/185/394 137/186/396
f 281/331/801 280/330/800 137/186/396 138/187/398
f 282/332/802 281/331/801 138/187/398 139/188/400
f 283/333/803 282/332/802 139/188/400 140/189/402
f 264/313/785 283/333/803 140/189/402 121/169/365
s 6
f 325/376/804 324/377/805 326/378/806 327/379/807
f 328/380/808 325/381/804 327/382/807 329/383/809
f 330/384/810 328/380/808 329/383/809 331/385/811
f 332/386/812 330/384/810 331/385/811 333/387/813
f 334/388/814 332/386/812 333/387/813 335/389/815
f 336/390/816 334/388/814 335/389/815 337/391/817
f 338/392/818 336/390/816 337/391/817 339/393/819
f 340/394/820 338/392/818 339/393/819 341/395/821
f 342/396/822 340/394/820 341/395/821 343/397/823
f 344/398/824 342/396/822 343/397/823 345/399/825
f 346/400/826 344/398/824 345/399/825 347/401/827
f 348/402/828 346/400/826 347/401/827 349/403/829
f 350/404/830 348/402/828 349/403/829 351/405/831
f 352/406/832 350/404/830 351/405/831 353/407/833
f 354/408/834 352/406/832 353/407/833 355/409/835
f 356/410/836 354/408/834 355/409/835 357/411/837
f 358/412/838 356/410/836 357/411/837 359/413/839
f 360/414/840 358/412/838 359/413/839 361/415/841
f 362/416/842 360/414/840 361/415/841 363/417/843
f 324/377/805 362/416/842 363/417/843 326/378/806
s 5
f 305/357/367 304/355/366 141/190/405 142/192/404
f 306/358/369 305/356/367 142/191/404 143/193/408
f 307/359/371 306/358/369 143/193/408 144/194/410
f 308/360/373 307/359/371 144/194/410 145/195/412
f 309/361/375 308/360/373 145/195/412 146/196/414
f 310/362/377 309/361/375 146/196/414 147/197/416
f 311/363/379 310/362/377 147/197/416 148/198/418
f 312/364/381 311/363/379 148/198/418 149/199/420
f 313/365/383 312/364/381 149/199/420 150/200/422
f 314/366/385 313/365/383 150/200/422 151/201/424
f 315/367/387 314/366/385 151/201/424 152/202/426
f 316/368/389 315/367/387 152/202/426 153/203/428
f 317/369/391 316/368/389 153/203/428 154/204/430
f 318/370/393 317/369/391 154/204/430 155/205/432
f 319/371/395 318/370/393 155/205/432 156/206/434
f 320/372/397 319/371/395 156/206/434 157/207/436
f 321/373/399 320/372/397 157/207/436 158/208/438
f 322/374/401 321/373/399 158/208/438 159/209/440
f 323/375/403 322/374/401 159/209/440 160/210/442
f 304/355/366 323/375/403 160/210/442 141/190/405
s off
f 285/336/844 284/334/845 324/377/846 325/376/847
f 264/313/848 265/315/849 327/379/850 326/378/851
f 286/337/852 285/335/853 325/381/854 328/380/855
f 265/314/856 266/316/857 329/383/858 327/382/859
f 287/338/860 286/337/861 328/380/862 330/384/863
f 266/316/864 267/317/865 331/385/866 329/383/867
f 288/339/868 287/338/869 330/384/870 332/386/871
f 267/317/872 268/318/873 333/387/874 331/385/875
f 289/340/876 288/339/877 332/386/878 334/388/879
f 268/318/880 269/319/881 335/389/882 333/387/883
f 290/341/884 289/340/885 334/388/886 336/390/887
f 269/319/888 270/320/889 337/391/890 335/389/891
f 291/342/892 290/341/893 336/390/894 338/392/895
f 270/320/896 271/321/897 339/393/898 337/391/899
f 292/343/900 291/342/901 338/392/902 340/394/903
f 271/321/904 272/322/905 341/395/906 339/393/907
f 293/344/908 292/343/909 340/394/910 342/396/911
f 272/322/912 273/323/913 343/397/914 341/395/915
f 294/345/916 293/344/917 342/396/918 344/398/919
f 273/323/920 274/324/921 345/399/922 343/397/923
f 295/346/924 294/345/925 344/398/926 346/400/927
f 274/324/928 275/325/929 347/401/930 345/399/931
f 296/347/932 295/346/933 346/400/934 348/402/935
f 275/325/936 276/326/937 349/403/938 347/401/939
f 297/348/940 296/347/941 348/402/942 350/404/943
f 276/326/944 277/327/945 351/405/946 349/403/947
f 298/349/948 297/348/949 350/404/950 352/406/951
f 277/327/952 278/328/953 353/407/954 351/405/955
f 299/350/956 298/349/957 352/406/958 354/408/959
f 278/328/960 279/329/961 355/409/962 353/407/963
f 300/351/964 299/350/965 354/408/966 356/410/967
f 279/329/968 280/330/969 357/411/970 355/409/971
f 301/352/972 300/351/973 356/410/974 358/412/975
f 280/330/976 281/331/977 359/413/978 357/411/979
f 302/353/980 301/352/981 358/412/982 360/414/983
f 281/331/984 282/332/985 361/415/986 359/413/987
f 303/354/988 302/353/989 360/414/990 362/416/991
f 282/332/992 283/333/993 363/417/994 361/415/995
f 284/334/996 303/354/997 362/416/998 324/377/999
f 283/333/1000 264/313/1001 326/378/1002 363/417/1003
